<svg width="38" height="42" viewBox="0 0 38 42" fill="none" xmlns="http://www.w3.org/2000/svg">
<path d="M37.6981 28.5068V13.5014C37.6981 11.5669 36.6641 9.77938 34.9858 8.81238L21.9667 1.30951C20.2884 0.342467 18.2203 0.342467 16.542 1.30951L3.52285 8.81238C1.8442 9.77938 0.810547 11.5669 0.810547 13.5014V28.5068C0.810547 30.4412 1.8442 32.2288 3.52285 33.1958L16.542 40.6986C18.2203 41.6657 20.2884 41.6657 21.9667 40.6986L34.9858 33.1958C36.6641 32.2288 37.6981 30.4412 37.6981 28.5068Z" fill="#008ACE"/>
<path d="M19.1925 9.24487H20.6996C20.9993 9.24487 21.242 9.48712 21.242 9.78595V28.237C21.242 29.3451 20.3423 30.2431 19.2325 30.2431C18.1223 30.2431 17.2227 29.3451 17.2227 28.237V11.2107C17.2227 10.1251 18.1045 9.24487 19.1925 9.24487Z" fill="white"/>
<path d="M26.1941 14.9756H27.7015C28.0012 14.9756 28.2439 15.2182 28.2439 15.517V28.238C28.2439 29.3461 27.3443 30.2441 26.2341 30.2441C25.1243 30.2441 24.2246 29.3461 24.2246 28.238V16.9418C24.2246 15.8558 25.1064 14.9756 26.1941 14.9756V14.9756Z" fill="white"/>
<path d="M12.2254 22.2083H13.7328C14.0326 22.2083 14.2753 22.4505 14.2753 22.7497V28.2705C14.2753 29.3786 13.3756 30.2766 12.2654 30.2766C11.1556 30.2766 10.2559 29.3786 10.2559 28.2705V24.1744C10.2559 23.0884 11.1377 22.2083 12.2254 22.2083H12.2254Z" fill="white"/>
</svg>
