<svg width="136" height="27" viewBox="0 0 136 27" fill="none" xmlns="http://www.w3.org/2000/svg">
<path fill-rule="evenodd" clip-rule="evenodd" d="M17.8444 19.3756C17.8444 22.1411 17.3249 23.6008 16.0426 24.7141C14.7225 25.8288 12.5594 26.5197 9.43605 26.5197C6.35209 26.5197 4.512 25.9822 3.22979 24.907C1.58935 23.5232 0.869141 21.1815 0.869141 17.6094V16.0345C0.869141 12.5005 1.58936 10.464 3.15205 8.96763C4.55033 7.6223 6.47507 7.00725 9.19704 7.00725C10.7169 7.00725 12.0786 7.39263 13.0012 7.96857H13.0793V1.13265C13.0793 0.362864 13.3183 0.171387 14.1998 0.171387H16.7249C17.604 0.171387 17.8444 0.362864 17.8444 1.13265V19.3756ZM13.0857 14.1132C13.0857 12.5777 12.7658 11.9232 12.2871 11.5024C11.7254 11.0014 10.9243 10.6959 9.60378 10.6959C8.20276 10.6959 7.32087 11.118 6.72084 11.8079C5.88013 12.7692 5.71878 13.9978 5.71878 16.1497V17.3403C5.71878 19.7976 5.95956 20.9886 6.68114 21.8342C7.2801 22.5254 8.0808 22.8322 9.44247 22.8322C11.0048 22.8322 11.7651 22.5635 12.3254 21.9876C12.8857 21.4107 13.0857 20.4507 13.0857 19.1449L13.0857 14.1132Z" fill="#0D0F11"/>
<path fill-rule="evenodd" clip-rule="evenodd" d="M34.1017 24.56C33.3401 25.8281 32.0989 26.519 29.6968 26.519H28.2153C26.1331 26.519 24.8919 26.1727 23.8108 25.2903C22.6501 24.3291 22.0898 22.8317 22.0898 20.988V20.1052C22.0898 18.0309 22.609 16.5713 23.7714 15.6482C25.0125 14.6504 26.8947 14.228 29.6178 14.228H31.0599C31.7804 14.228 32.6195 14.266 33.3017 14.3055V13.2683C33.3017 12.2689 33.0996 11.6933 32.6195 11.309C32.0606 10.8868 31.2989 10.7715 29.8585 10.7715C28.4146 10.7715 26.5338 11.0403 24.9344 11.5018C24.292 11.6933 24.0529 11.4243 23.9324 10.8868L23.5714 9.08124C23.4132 8.42947 23.4923 8.12133 24.1717 7.92981C25.6536 7.46821 28.0962 7.00659 30.2181 7.00659C33.0599 7.00659 34.6223 7.35287 35.9839 8.23663C37.4247 9.19658 38.0645 10.58 38.0645 13.3061V25.4438C38.0645 25.9434 37.7839 26.1727 37.225 26.1727H35.384C34.7808 26.1727 34.5414 25.9816 34.4216 25.4819L34.1822 24.56H34.1017ZM33.3035 17.9533C32.6212 17.9156 31.7822 17.8774 30.9808 17.8774H29.5801C28.6585 17.8774 27.8972 17.9928 27.4965 18.3377C27.0551 18.684 26.8965 19.3368 26.8965 20.2195V20.6811C26.8965 21.5254 27.0961 22.0645 27.4965 22.4095C27.8164 22.6782 28.3784 22.8697 29.2602 22.8697H30.7007C32.5422 22.8697 33.3035 22.0645 33.3035 20.2967L33.3035 17.9533Z" fill="#0D0F11"/>
<path d="M48.9981 7.35382H52.9622C53.6417 7.35382 53.8019 7.5845 53.8019 8.35157V10.2346C53.8019 10.8878 53.6417 11.1946 52.9622 11.1946H48.9981V19.5674C48.9981 20.9508 49.0772 21.411 49.4793 21.8346C49.8375 22.2189 50.2793 22.3329 51.3601 22.3329H53.3204C54.164 22.3329 54.2828 22.5639 54.2828 23.3323V25.2141C54.2828 25.9444 54.2037 26.1737 53.3204 26.1737H50.4375C48.1162 26.1737 46.7563 25.8291 45.7546 24.945C44.7155 24.0232 44.234 22.5258 44.234 20.3358V11.1946H41.8312C41.2309 11.1946 41.0312 11.0412 41.0312 10.4643V8.7754C41.0312 8.1604 41.1901 8.04609 41.6709 7.96888L44.234 7.54672V3.19774C44.234 2.43064 44.4734 2.23779 45.3553 2.23779H47.8773C48.7574 2.23779 48.9982 2.43064 48.9982 3.19774L48.9981 7.35382Z" fill="#0D0F11"/>
<path fill-rule="evenodd" clip-rule="evenodd" d="M69.0148 24.5603C68.2521 25.8284 67.0124 26.5193 64.6089 26.5193H63.1288C61.0451 26.5193 59.8054 26.173 58.7242 25.2906C57.5636 24.3293 57.002 22.8319 57.002 20.9882V20.1055C57.002 18.0312 57.5225 16.5715 58.6845 15.6484C59.9246 14.6506 61.8068 14.2282 64.5285 14.2282H65.972C66.6897 14.2282 67.5316 14.2663 68.2124 14.3057V13.2685C68.2124 12.2692 68.0131 11.6936 67.5316 11.3092C66.9713 10.8871 66.211 10.7718 64.7692 10.7718C63.3281 10.7718 61.4445 11.0405 59.8438 11.5021C59.2041 11.6936 58.965 11.4245 58.8431 10.8871L58.4835 9.08148C58.3225 8.42972 58.403 8.12157 59.0849 7.93006C60.5643 7.46845 63.0068 7.00684 65.1302 7.00684C67.972 7.00684 69.5344 7.35311 70.8947 8.23687C72.3365 9.19682 72.9776 10.5802 72.9776 13.3063V25.444C72.9776 25.9437 72.696 26.173 72.1372 26.173H70.2932C69.6929 26.173 69.4535 25.9818 69.3347 25.4821L69.0929 24.5603H69.0148ZM68.2142 17.9536C67.5333 17.9158 66.6915 17.8777 65.8929 17.8777H64.4919C63.5692 17.8777 62.8093 17.993 62.4086 18.338C61.9699 18.6843 61.8086 19.337 61.8086 20.2197V20.6813C61.8086 21.5256 62.0079 22.0647 62.4086 22.4097C62.7285 22.6784 63.2901 22.8699 64.1696 22.8699H65.6114C67.4529 22.8699 68.2142 22.0647 68.2142 20.297L68.2142 17.9536Z" fill="#0D0F11"/>
<path fill-rule="evenodd" clip-rule="evenodd" d="M82.7451 8.4299H82.8231C83.9426 7.50809 85.4656 7.00702 87.6266 7.00702C90.1102 7.00702 91.9123 7.58397 93.152 8.9674C94.4739 10.3876 94.9959 12.7691 94.9959 16.0343V17.647C94.9959 20.9884 94.3137 23.2161 92.8719 24.5995C91.3924 26.0197 89.3493 26.5194 86.2663 26.5194C83.7032 26.5194 81.9019 26.2888 80.4607 25.4048C78.8998 24.407 77.9785 23.0236 77.9785 19.8356V1.13241C77.9785 0.36262 78.2203 0.171143 79.0994 0.171143H81.6214C82.5019 0.171143 82.7451 0.36262 82.7451 1.13241L82.7451 8.4299ZM90.151 16.1865C90.151 13.9598 90.0719 12.693 89.391 11.7712C88.829 11.0014 87.8287 10.7327 86.4276 10.7327C85.1057 10.7327 84.1858 10.9646 83.6252 11.4249C83.1043 11.8474 82.7461 12.461 82.7461 13.9979V19.1826C82.7461 20.7198 82.9036 21.3348 83.3039 21.8723C83.866 22.5254 84.7064 22.8322 86.307 22.8322C87.789 22.8322 88.7513 22.4873 89.3105 21.7951C89.9105 21.0658 90.151 20.0667 90.151 17.3771L90.151 16.1865Z" fill="#0D0F11"/>
<path fill-rule="evenodd" clip-rule="evenodd" d="M113.384 9.27267C114.866 10.8871 115.425 13.3063 115.425 16.1862V17.34C115.425 20.297 114.866 22.6404 113.384 24.2535C112.062 25.6736 109.98 26.5193 107.016 26.5193C104.054 26.5193 101.972 25.6736 100.65 24.2535C99.1683 22.6404 98.6094 20.297 98.6094 17.34V16.1862C98.6094 13.3063 99.1683 10.8871 100.65 9.27267C101.972 7.8134 104.013 7.00684 107.016 7.00684C110.02 7.00684 112.062 7.8134 113.384 9.27267ZM109.705 21.8339C110.385 20.9883 110.585 19.4905 110.585 17.1475V16.341C110.585 13.9976 110.385 12.538 109.705 11.6937C109.143 11.0011 108.463 10.6565 107.021 10.6565C105.581 10.6565 104.9 11.0011 104.339 11.6937C103.659 12.538 103.459 13.9976 103.459 16.341V17.1475C103.459 19.4905 103.659 20.9883 104.339 21.8339C104.9 22.487 105.581 22.8701 107.021 22.8701C108.463 22.8701 109.143 22.487 109.705 21.8339Z" fill="#0D0F11"/>
<path d="M135.121 25.3289C135.36 25.751 135.319 26.1731 134.437 26.1731H131.236C130.396 26.1731 130.273 26.0579 129.955 25.4442L127.072 19.26C126.793 18.6845 126.671 18.4535 126.47 18.4535H125.992C125.79 18.4535 125.631 18.7603 125.389 19.26L122.428 25.4442C122.146 26.0578 121.988 26.1731 121.146 26.1731H117.944C117.064 26.1731 117.022 25.751 117.263 25.3289L121.946 16.8785C122.108 16.6098 122.108 16.4183 121.946 16.1495L117.542 8.1989C117.303 7.77674 117.341 7.35327 118.223 7.35327H121.346C122.187 7.35327 122.308 7.46861 122.628 8.08225L125.389 13.8048C125.631 14.2664 125.75 14.5351 125.992 14.5351H126.47C126.712 14.5351 126.871 14.2664 127.113 13.8048L129.915 8.08225C130.235 7.46861 130.355 7.35327 131.194 7.35327H134.319C135.2 7.35327 135.24 7.77674 134.999 8.1989L130.435 16.1495C130.273 16.4183 130.273 16.6098 130.435 16.8785L135.121 25.3289Z" fill="#0D0F11"/>
</svg>
