<svg width="270" height="126" viewBox="0 0 270 126" fill="none" xmlns="http://www.w3.org/2000/svg">
<g opacity="0.5">
<path d="M268.37 53.9519L265.304 50.8858C265.007 50.5885 265.007 50.1068 265.304 49.8095C265.601 49.5127 266.083 49.5127 266.38 49.8095L269.446 52.8755C269.743 53.1729 269.743 53.6545 269.446 53.9519C269.149 54.2487 268.667 54.2487 268.37 53.9519Z" fill="#A5AFB9"/>
<path d="M265.304 53.9518C265.007 53.655 265.007 53.1734 265.304 52.8761L268.37 49.81C268.666 49.5132 269.149 49.5132 269.445 49.81C269.743 50.1067 269.743 50.5889 269.445 50.8857L266.379 53.9518C266.083 54.2492 265.6 54.2492 265.304 53.9518Z" fill="#A5AFB9"/>
<path d="M22.7642 26.9864L19.6982 23.9203C19.4014 23.623 19.4014 23.1413 19.6982 22.8446C19.9949 22.5472 20.4772 22.5472 20.7739 22.8446L23.8399 25.9107C24.1373 26.2074 24.1373 26.6897 23.8399 26.9864C23.5432 27.2832 23.061 27.2832 22.7642 26.9864Z" fill="#A5AFB9"/>
<path d="M19.6982 26.986C19.4014 26.6892 19.4014 26.207 19.6982 25.9102L22.7648 22.8442C23.0616 22.5474 23.5432 22.5474 23.8406 22.8442C24.1373 23.1409 24.1373 23.6231 23.8406 23.9199L20.7745 26.986C20.4772 27.2833 19.9955 27.2833 19.6982 26.986Z" fill="#A5AFB9"/>
<path d="M75.5347 4.43652C75.7293 4.43652 75.9245 4.5107 76.0729 4.65909C76.3702 4.95644 76.3702 5.43807 76.0729 5.73482L73.0068 8.80031C72.7094 9.09705 72.2278 9.09705 71.931 8.80031C71.6337 8.50294 71.6337 8.02131 71.931 7.72456L74.9971 4.65909C75.1455 4.5107 75.3401 4.43652 75.5347 4.43652Z" fill="#A5AFB9"/>
<path d="M72.4686 4.43652C72.6632 4.43652 72.8584 4.5107 73.0068 4.65909L76.0729 7.72456C76.3702 8.02132 76.3702 8.50294 76.0729 8.80031C75.7755 9.09705 75.2939 9.09705 74.9971 8.80031L71.931 5.73482C71.6337 5.43806 71.6337 4.95644 71.931 4.65909C72.0794 4.5107 72.274 4.43652 72.4686 4.43652Z" fill="#A5AFB9"/>
<path d="M83.6697 71.8985C83.4752 71.8985 83.2805 71.8243 83.1322 71.6759C82.8349 71.3785 82.8349 70.8969 83.1322 70.6001L86.1976 67.5341C86.495 67.2367 86.9766 67.2367 87.274 67.5341C87.5714 67.8314 87.5714 68.3124 87.274 68.6098L84.2079 71.6759C84.0589 71.8243 83.8644 71.8985 83.6697 71.8985H83.6697Z" fill="#A5AFB9"/>
<path d="M86.7358 71.8985C86.5413 71.8985 86.3466 71.8243 86.1976 71.6759L83.1322 68.6098C82.8349 68.3124 82.8349 67.8314 83.1322 67.5341C83.4289 67.2367 83.9105 67.2367 84.2079 67.5341L87.274 70.6001C87.5714 70.8969 87.5714 71.3785 87.274 71.6759C87.125 71.8243 86.9305 71.8985 86.7358 71.8985H86.7358Z" fill="#A5AFB9"/>
<rect x="115.8" y="0.378906" width="32.4519" height="1.52163" fill="#A5AFB9"/>
<rect x="79.0537" y="5.95801" width="51.4516" height="1.52163" fill="#A5AFB9"/>
<rect x="107.651" y="0.378906" width="5.61348" height="1.52163" fill="#A5AFB9"/>
<rect x="242.162" y="67.5107" width="17.6463" height="1.52163" fill="#A5AFB9"/>
<rect x="261.334" y="67.5107" width="3.62178" height="1.52163" fill="#A5AFB9"/>
<rect x="0.132812" y="37.1494" width="17.6463" height="1.52163" fill="#A5AFB9"/>
<rect x="19.2988" y="37.1494" width="3.62228" height="1.52163" fill="#A5AFB9"/>
<path d="M23.3894 12.2843C23.3894 12.8851 22.9023 13.3722 22.3008 13.3722C21.7 13.3722 21.2129 12.8851 21.2129 12.2843C21.2129 11.6829 21.7 11.1958 22.3008 11.1958C22.9023 11.1958 23.3894 11.6829 23.3894 12.2843Z" fill="#A5AFB9"/>
<path d="M253.313 27.28C253.313 28.034 252.702 28.6458 251.948 28.6458C251.193 28.6458 250.581 28.034 250.581 27.28C250.581 26.5253 251.193 25.9136 251.948 25.9136C252.702 25.9136 253.313 26.5253 253.313 27.28Z" fill="#A5AFB9"/>
<rect x="198.963" y="124.156" width="26.6007" height="1.52162" fill="#A5AFB9"/>
<rect x="16.3379" y="124.156" width="29.1047" height="1.52162" fill="#A5AFB9"/>
<rect x="57.4072" y="124.156" width="28.0865" height="1.52162" fill="#A5AFB9"/>
<rect x="11.3301" y="124.156" width="3.00701" height="1.52162" fill="#A5AFB9"/>
<rect x="248.356" y="124.156" width="6.64046" height="1.52162" fill="#A5AFB9"/>
</g>
<g opacity="0.8">
<path d="M79.9062 33.0371L80.8721 33.7946" stroke="#192E53" stroke-width="1.21622" stroke-linecap="round" stroke-linejoin="round"/>
<path d="M78.0635 39.6322L79.2821 39.4849" stroke="#192E53" stroke-width="1.21622" stroke-linecap="round" stroke-linejoin="round"/>
<path d="M79.1504 42.9497L80.2198 42.3472" stroke="#192E53" stroke-width="1.21622" stroke-linecap="round" stroke-linejoin="round"/>
<path d="M78.3271 36.1514L79.5094 36.4816" stroke="#192E53" stroke-width="1.21622" stroke-linecap="round" stroke-linejoin="round"/>
<path d="M96.667 35.4303C97.7372 33.1651 97.0081 31.4144 96.012 30.2292C94.7588 28.7381 92.8298 27.919 90.8863 28.0522C89.3423 28.1573 87.5758 28.8488 86.6885 31.1918C85.701 33.7994 84.0882 35.4151 82.7407 36.3747C81.747 37.0819 81.5616 38.4709 82.3484 39.4025C85.0667 42.6212 89.5636 44.5337 93.7706 44.2546C94.9874 44.1743 95.8582 43.0767 95.6776 41.8702C95.4319 40.2344 95.4757 37.9522 96.667 35.4303L96.667 35.4303Z" stroke="#192E53" stroke-width="1.21622" stroke-linecap="round" stroke-linejoin="round"/>
<path d="M85.2826 43.6235C84.9998 44.3618 85.5039 45.2678 86.43 45.6613C87.3568 46.0547 88.3584 45.7884 88.6934 45.0727" stroke="#192E53" stroke-width="1.21622" stroke-linecap="round" stroke-linejoin="round"/>
</g>
<g style="mix-blend-mode:multiply" opacity="0.8">
<path d="M98.0801 34.214C99.1503 31.9488 98.4218 30.1981 97.4251 29.0129C96.1718 27.5218 94.2435 26.7027 92.3 26.8358C90.7554 26.941 88.9889 27.6325 88.1016 29.9755C87.1141 32.5831 85.502 34.1988 84.1538 35.1584C83.1601 35.8656 82.9747 37.2546 83.7615 38.1862C86.4798 41.4049 90.9767 43.3174 95.1837 43.0383C96.4011 42.958 97.2719 41.8604 97.0907 40.6539C96.8456 39.0181 96.8888 36.7359 98.08 34.214L98.0801 34.214Z" fill="url(#paint0_linear_203_2242)"/>
</g>
<g style="mix-blend-mode:multiply">
<circle cx="211.344" cy="26.8728" r="6.01729" fill="url(#paint1_linear_203_2242)"/>
</g>
<path d="M212.244 27.0323C212.244 28.1585 211.33 29.8131 210.204 29.8131C209.078 29.8131 208.165 28.1585 208.165 27.0323C208.165 25.9061 209.078 24.9927 210.204 24.9927C211.33 24.9927 212.244 25.9061 212.244 27.0323Z" fill="white"/>
<path d="M211.817 30.3306C211.481 31.0724 210.886 31.7213 210.205 31.7213C209.524 31.7213 208.929 31.0724 208.593 30.3306C207.593 30.5033 206.684 30.8298 205.925 31.2749V32.6365C207.076 32.9472 208.569 33.5091 210.205 33.5091C211.843 33.5091 213.338 32.9466 214.49 32.6347V31.278C213.73 30.8316 212.818 30.5039 211.817 30.3306Z" fill="white"/>
<circle cx="210.206" cy="28.0478" r="6.05117" stroke="#192E53" stroke-width="1.21622" stroke-linecap="round" stroke-linejoin="round"/>
<g style="mix-blend-mode:multiply">
<circle cx="46.2719" cy="24.1479" r="9.03855" fill="url(#paint2_linear_203_2242)"/>
</g>
<path d="M50.8458 30.4066C48.9169 29.6617 46.7758 29.7006 46.5958 29.1235V28.2564C48.5223 28.2509 49.2867 27.6282 49.2867 27.6282C48.4827 27.1715 48.228 23.9808 48.228 23.9808C48.228 23.0041 47.8175 22.1309 47.1705 21.5331C46.9266 21.2504 46.5921 21.0369 46.1598 20.9098C45.8369 20.7894 45.4902 20.7207 45.1278 20.7207C44.7429 20.7207 44.3762 20.7979 44.0362 20.9329C43.6872 21.0485 43.4014 21.223 43.1788 21.448C42.4771 22.0458 42.0283 22.9579 42.0283 23.9808C42.0283 23.9808 41.7735 27.1715 40.9696 27.6282C40.9696 27.6282 41.7339 28.2509 43.6605 28.2564V29.1235C43.4811 29.7 41.3387 29.6611 39.4097 30.4066C39.2456 30.4705 39.1367 30.6305 39.1367 30.8092V32.3228C39.1367 32.5606 43.7741 34.7917 44.0089 34.7917L47.5262 34.5315C47.7609 34.5315 51.1195 32.5606 51.1195 32.3228V30.8092C51.1195 30.6305 51.0106 30.4705 50.8458 30.4066L50.8458 30.4066Z" fill="white"/>
<circle cx="45.1275" cy="25.3273" r="9.07676" stroke="#192E53" stroke-width="1.21622" stroke-linecap="round" stroke-linejoin="round"/>
<g style="mix-blend-mode:multiply">
<circle cx="124.771" cy="48.0005" r="9.03855" fill="url(#paint3_linear_203_2242)"/>
</g>
<path d="M129.277 55C128.13 53.8866 126.731 53.1009 125.225 52.7251C125.187 52.7044 125.144 52.6929 125.1 52.6929H124.963C124.92 52.6929 124.878 52.7038 124.84 52.7239C124.841 52.7263 125.23 53.6397 125.471 53.7285C125.471 53.7285 123.583 55.4853 123.129 57.8204H125.292C125.437 57.8204 129.357 56.2673 129.357 56.1226V55.1873C129.357 55.1168 129.328 55.0493 129.277 55L129.277 55Z" fill="white"/>
<path d="M120.788 53.7285C121.03 53.6397 121.419 52.7239 121.419 52.7239C121.382 52.7038 121.339 52.6929 121.296 52.6929H121.197C121.177 52.6929 121.156 52.6953 121.137 52.7002C119.591 53.0656 118.155 53.8611 116.982 55C116.931 55.0493 116.902 55.1168 116.902 55.1873V56.1226C116.902 56.2673 121.245 58.0813 121.39 58.0813L123.131 57.8204C122.676 55.4853 120.788 53.7285 120.788 53.7285L120.788 53.7285Z" fill="white"/>
<path d="M120.787 45.9649C120.493 46.4361 120.322 47.0004 120.322 47.6074C120.322 47.9442 120.375 48.2678 120.473 48.5694C120.304 48.649 120.187 48.8278 120.187 49.0352C120.187 49.3174 120.403 49.546 120.668 49.546L120.677 49.5454C120.733 50.3006 121.092 51.0565 121.625 51.574V52.1475C121.625 52.1475 122.331 53.534 123.13 53.5498C123.929 53.5662 124.635 52.1475 124.635 52.1475V51.574C125.168 51.0565 125.527 50.3006 125.583 49.5454L125.592 49.546C125.857 49.546 126.073 49.3174 126.073 49.0352C126.073 48.8278 125.956 48.649 125.787 48.5694C125.885 48.2678 125.938 47.9442 125.938 47.6074C125.938 47.299 125.894 47.0017 125.812 46.722C125.92 46.9396 125.989 47.1421 126.052 47.2765C126.091 47.3605 126.238 47.2765 126.238 47.2765C126.523 46.0397 125.486 45.2698 125.486 45.2698C126.263 45.316 126.535 45.6711 126.535 45.6711C125.874 44.5291 124.998 44.8319 124.992 44.8344C123.794 43.1207 121.132 44.2895 121.132 44.2895C121.86 44.1514 122.396 44.1776 122.899 44.2317C120.447 44.1113 119.903 46.6307 119.903 46.6307C119.997 46.3333 120.345 46.1187 120.787 45.9649H120.787Z" fill="white"/>
<circle cx="123.134" cy="49.0045" r="9.07676" stroke="#192E53" stroke-width="1.21622" stroke-linecap="round" stroke-linejoin="round"/>
<g style="mix-blend-mode:multiply">
<circle cx="88.7524" cy="93.0454" r="9.03855" fill="url(#paint4_linear_203_2242)"/>
</g>
<path d="M92.984 99.8313C91.0763 99.0937 88.9583 98.1785 88.7807 97.6081V97.0097C89.1759 96.6047 89.4885 96.0404 89.6728 95.3794C89.9185 95.2073 90.0802 94.9166 90.0802 94.5864C90.0802 94.3523 89.9951 94.14 89.8601 93.9734V92.6338C89.8601 91.2509 89.0896 90.3047 87.3291 90.3047C85.6143 90.3047 84.7982 91.2509 84.7982 92.6338V93.974C84.6631 94.14 84.5781 94.3523 84.5781 94.5864C84.5781 94.916 84.7392 95.2061 84.9849 95.3794C85.1697 96.0404 85.4817 96.6047 85.8776 97.0097V97.6081C85.7006 98.1779 83.582 99.0937 81.6744 99.8313C81.5119 99.894 81.4043 100.053 81.4043 100.229V101.352C81.4043 101.587 85.3157 103.174 85.5474 103.174L89.2361 103.144C89.4678 103.144 93.2539 101.567 93.2539 101.332V100.229C93.2539 100.053 93.1463 99.894 92.984 99.8313Z" fill="white"/>
<circle cx="87.3268" cy="94.3146" r="9.07676" stroke="#192E53" stroke-width="1.21622" stroke-linecap="round" stroke-linejoin="round"/>
<g opacity="0.8">
<path d="M180.353 83.1104L186.934 73.8205L190.303 77.6369L196.211 69.5801L199.891 73.3258L205.488 64.9863L210.619 69.6508L212.381 67.1065L219.067 74.0483L223.886 68.0959V83.1104L180.353 83.1104Z" fill="#FFCE03"/>
<path d="M179.375 83.3652H228.817" stroke="#192E53" stroke-width="1.21622" stroke-linecap="round" stroke-linejoin="round"/>
<path d="M176.321 82.5154L186.986 67.9287L190.148 72.0836L196.036 63.9003L199.86 68.2672L205.157 59.9277L210.516 64.6759L212.557 62.1883L218.39 68.4216" stroke="#192E53" stroke-width="1.21622" stroke-linecap="round" stroke-linejoin="round"/>
<g style="mix-blend-mode:multiply" opacity="0.5">
<mask id="mask0_203_2242" style="mask-type:alpha" maskUnits="userSpaceOnUse" x="179" y="54" width="48" height="30">
<path d="M179.304 83.1107L185.898 72.4118L189.169 74.188L195.192 67.1767L198.826 68.205L204.382 54.6499L209.73 67.2702L211.443 64.0918L217.985 72.7857L222.918 65.1201L226.864 68.9529V83.1107L179.304 83.1107Z" fill="black"/>
</mask>
<g mask="url(#mask0_203_2242)">
<path d="M154.348 85.4284L153.903 84.8223L200.475 21.3145L200.919 21.9205L154.348 85.4284Z" fill="#F6921E"/>
<path d="M155.23 86.6325L154.785 86.0265L201.357 22.5186L201.801 23.1246L155.23 86.6325Z" fill="#F6921E"/>
<path d="M156.127 87.8596L155.683 87.2535L202.254 23.7456L202.699 24.3516L156.127 87.8596Z" fill="#F6921E"/>
<path d="M157.03 89.0866L156.586 88.4806L203.157 24.9727L203.602 25.5787L157.03 89.0866Z" fill="#F6921E"/>
<path d="M157.912 90.2907L157.468 89.6847L204.039 26.1768L204.484 26.7828L157.912 90.2907Z" fill="#F6921E"/>
<path d="M158.789 91.4841L158.345 90.878L204.916 27.3701L205.361 27.9761L158.789 91.4841Z" fill="#F6921E"/>
<path d="M159.687 92.7111L159.242 92.1051L205.814 28.5972L206.258 29.2032L159.687 92.7111Z" fill="#F6921E"/>
<path d="M160.59 93.9382L160.146 93.3321L206.717 29.8242L207.161 30.4302L160.59 93.9382Z" fill="#F6921E"/>
<path d="M161.472 95.1423L161.027 94.5362L207.599 31.0283L208.043 31.6343L161.472 95.1423Z" fill="#F6921E"/>
<path d="M162.328 96.3132L161.884 95.7071L208.455 32.1992L208.9 32.8052L162.328 96.3132Z" fill="#F6921E"/>
<path d="M163.231 97.5402L162.786 96.9342L209.358 33.4263L209.802 34.0323L163.231 97.5402Z" fill="#F6921E"/>
<path d="M164.129 98.7668L163.685 98.1607L210.256 34.6528L210.701 35.2589L164.129 98.7668Z" fill="#F6921E"/>
<path d="M165.011 99.9713L164.566 99.3653L211.138 35.8574L211.582 36.4635L165.011 99.9713Z" fill="#F6921E"/>
<path d="M165.888 101.164L165.443 100.558L212.015 37.0503L212.459 37.6563L165.888 101.164Z" fill="#F6921E"/>
<path d="M166.785 102.392L166.341 101.786L212.912 38.2778L213.357 38.8839L166.785 102.392Z" fill="#F6921E"/>
<path d="M167.688 103.619L167.244 103.013L213.816 39.5049L214.26 40.1109L167.688 103.619Z" fill="#F6921E"/>
<path d="M168.57 104.823L168.126 104.217L214.697 40.709L215.142 41.315L168.57 104.823Z" fill="#F6921E"/>
<path d="M169.463 106.041L169.019 105.435L215.59 41.9272L216.034 42.5332L169.463 106.041Z" fill="#F6921E"/>
<path d="M170.36 107.269L169.916 106.663L216.488 43.1548L216.932 43.7608L170.36 107.269Z" fill="#F6921E"/>
<path d="M171.264 108.496L170.819 107.89L217.391 44.3818L217.835 44.9879L171.264 108.496Z" fill="#F6921E"/>
<path d="M172.146 109.7L171.701 109.094L218.273 45.5859L218.717 46.192L172.146 109.7Z" fill="#F6921E"/>
<path d="M173.023 110.893L172.578 110.287L219.15 46.7788L219.594 47.3848L173.023 110.893Z" fill="#F6921E"/>
<path d="M173.92 112.12L173.476 111.514L220.047 48.0059L220.492 48.6119L173.92 112.12Z" fill="#F6921E"/>
<path d="M174.818 113.347L174.373 112.741L220.945 49.2334L221.389 49.8394L174.818 113.347Z" fill="#F6921E"/>
<path d="M175.702 114.551L175.258 113.945L221.829 50.4375L222.274 51.0435L175.702 114.551Z" fill="#F6921E"/>
<path d="M176.561 115.722L176.116 115.116L222.688 51.6079L223.132 52.2139L176.561 115.722Z" fill="#F6921E"/>
<path d="M177.467 116.949L177.022 116.343L223.594 52.835L224.038 53.441L177.467 116.949Z" fill="#F6921E"/>
<path d="M178.364 118.176L177.92 117.57L224.491 54.0625L224.936 54.6685L178.364 118.176Z" fill="#F6921E"/>
<path d="M179.246 119.38L178.802 118.774L225.373 55.2661L225.818 55.8721L179.246 119.38Z" fill="#F6921E"/>
<path d="M180.123 120.573L179.679 119.967L226.25 56.4595L226.695 57.0655L180.123 120.573Z" fill="#F6921E"/>
<path d="M181.021 121.8L180.576 121.194L227.148 57.6865L227.592 58.2925L181.021 121.8Z" fill="#F6921E"/>
<path d="M181.918 123.027L181.474 122.421L228.045 58.9136L228.489 59.5196L181.918 123.027Z" fill="#F6921E"/>
<path d="M182.806 124.232L182.361 123.626L228.933 60.1177L229.377 60.7237L182.806 124.232Z" fill="#F6921E"/>
<path d="M183.683 125.428L183.238 124.822L229.81 61.3145L230.254 61.9205L183.683 125.428Z" fill="#F6921E"/>
<path d="M184.58 126.656L184.136 126.05L230.707 62.542L231.152 63.148L184.58 126.656Z" fill="#F6921E"/>
<path d="M185.484 127.883L185.039 127.277L231.611 63.769L232.055 64.3751L185.484 127.883Z" fill="#F6921E"/>
<path d="M186.365 129.087L185.921 128.481L232.492 64.9731L232.937 65.5792L186.365 129.087Z" fill="#F6921E"/>
<path d="M187.236 130.28L186.792 129.674L233.363 66.166L233.808 66.772L187.236 130.28Z" fill="#F6921E"/>
<path d="M188.14 131.507L187.695 130.901L234.267 67.3931L234.711 67.9991L188.14 131.507Z" fill="#F6921E"/>
<path d="M189.037 132.735L188.593 132.128L235.164 68.6206L235.609 69.2266L189.037 132.735Z" fill="#F6921E"/>
<path d="M189.92 133.938L189.476 133.332L236.047 69.8242L236.491 70.4302L189.92 133.938Z" fill="#F6921E"/>
<path d="M190.78 135.109L190.336 134.503L236.907 70.9951L237.352 71.6011L190.78 135.109Z" fill="#F6921E"/>
<path d="M191.679 136.336L191.234 135.73L237.806 72.2222L238.25 72.8282L191.679 136.336Z" fill="#F6921E"/>
<path d="M192.576 137.563L192.132 136.957L238.703 73.4487L239.148 74.0548L192.576 137.563Z" fill="#F6921E"/>
<path d="M193.463 138.767L193.019 138.161L239.59 74.6533L240.034 75.2593L193.463 138.767Z" fill="#F6921E"/>
<path d="M194.34 139.961L193.896 139.355L240.467 75.8467L240.911 76.4527L194.34 139.961Z" fill="#F6921E"/>
<path d="M195.238 141.188L194.794 140.582L241.365 77.0737L241.81 77.6798L195.238 141.188Z" fill="#F6921E"/>
<path d="M196.136 142.415L195.691 141.809L242.263 78.3008L242.707 78.9068L196.136 142.415Z" fill="#F6921E"/>
<path d="M197.018 143.619L196.573 143.013L243.145 79.5049L243.589 80.1109L197.018 143.619Z" fill="#F6921E"/>
<path d="M197.915 144.838L197.471 144.232L244.042 80.7236L244.487 81.3296L197.915 144.838Z" fill="#F6921E"/>
<path d="M198.813 146.065L198.369 145.459L244.941 81.9507L245.385 82.5567L198.813 146.065Z" fill="#F6921E"/>
</g>
</g>
<path d="M227.242 58.6235L218.39 68.4211" stroke="#192E53" stroke-width="1.21622" stroke-linecap="round" stroke-linejoin="round" stroke-dasharray="0.3 3.04"/>
</g>
<g opacity="0.8">
<ellipse cx="53.3674" cy="83.161" rx="14.2297" ry="14.4208" fill="white" stroke="#192E53" stroke-width="1.21622" stroke-linecap="round" stroke-linejoin="round"/>
<g style="mix-blend-mode:multiply" opacity="0.5">
<circle cx="54.9855" cy="82.0148" r="14.3263" fill="url(#paint5_linear_203_2242)"/>
</g>
<path d="M52.806 70.8066L52.7178 84.075L62.0595 74.8402C62.0595 74.8402 59.1199 71.5558 52.806 70.8066V70.8066Z" fill="url(#paint6_linear_203_2242)"/>
<path d="M66.828 72.0139L68.8117 70.0035C68.878 69.9366 68.9242 69.8526 68.9364 69.7736C68.9503 69.6915 68.9321 69.6185 68.8852 69.5711L66.5684 67.2244C66.5221 67.1764 66.4498 67.1587 66.3708 67.1715C66.2917 67.1843 66.2078 67.2299 66.1421 67.2974L64.1584 69.3072C64.0922 69.3741 66.7623 72.0813 66.828 72.0139L66.828 72.0139Z" fill="white" stroke="#192E53" stroke-width="1.21622" stroke-linecap="round" stroke-linejoin="round"/>
<path d="M55.6522 68.9253V66.4242H57.2205V62.5037C57.2205 62.0707 56.869 61.7192 56.4361 61.7192H50.1634C49.7304 61.7192 49.3789 62.0707 49.3789 62.5037V66.4242H50.9473V68.9253" stroke="#192E53" stroke-width="1.21622" stroke-linecap="round" stroke-linejoin="round"/>
<path d="M61.7329 74.8643L53.0439 83.7731L61.7329 74.8643Z" fill="white"/>
<path d="M61.7329 74.8643L53.0439 83.7731" stroke="#192E53" stroke-width="1.21622" stroke-linecap="round" stroke-linejoin="round"/>
</g>
<rect x="93.292" y="54.7886" width="98.4544" height="61.2928" rx="3.44754" fill="white" stroke="#192E53" stroke-width="1.21622" stroke-linecap="round" stroke-linejoin="round"/>
<path fill-rule="evenodd" clip-rule="evenodd" d="M88.3789 120.454L88.7553 123.608C88.8247 124.392 89.4808 124.993 90.2677 124.993H194.854C195.617 124.993 196.262 124.426 196.36 123.67L196.662 120.454" fill="white"/>
<path d="M88.3789 120.454L88.7553 123.608C88.8247 124.392 89.4808 124.993 90.2677 124.993H194.854C195.617 124.993 196.262 124.426 196.36 123.67L196.662 120.454" stroke="#192E53" stroke-width="1.21622" stroke-linecap="round" stroke-linejoin="round"/>
<path fill-rule="evenodd" clip-rule="evenodd" d="M93.293 114.194L88.36 119.703C88.143 120.654 88.8654 121.56 89.8402 121.56H195.2C196.176 121.56 196.898 120.654 196.681 119.703L191.748 114.194H93.293Z" fill="white" stroke="#192E53" stroke-width="1.21622" stroke-linecap="round" stroke-linejoin="round"/>
<rect opacity="0.25" x="158.401" y="101.543" width="52.1448" height="39.4203" transform="rotate(180 158.401 101.543)" fill="url(#paint7_linear_203_2242)"/>
<path d="M163.988 64.6372H180.841" stroke="#192E53" stroke-width="1.21622" stroke-linecap="round" stroke-linejoin="round"/>
<path d="M163.988 68.668H180.841" stroke="#192E53" stroke-width="1.21622" stroke-linecap="round" stroke-linejoin="round"/>
<path d="M163.988 72.6987H174.123" stroke="#192E53" stroke-width="1.21622" stroke-linecap="round" stroke-linejoin="round"/>
<path d="M163.988 94.8677H180.841" stroke="#192E53" stroke-width="1.21622" stroke-linecap="round" stroke-linejoin="round"/>
<path d="M163.988 98.8984H174.795" stroke="#192E53" stroke-width="1.21622" stroke-linecap="round" stroke-linejoin="round"/>
<path d="M163.988 80.0884H180.841" stroke="#192E53" stroke-width="1.21622" stroke-linecap="round" stroke-linejoin="round"/>
<path d="M163.988 84.1187H180.841" stroke="#192E53" stroke-width="1.21622" stroke-linecap="round" stroke-linejoin="round"/>
<path d="M163.988 88.1494H168.749" stroke="#192E53" stroke-width="1.21622" stroke-linecap="round" stroke-linejoin="round"/>
<rect x="103.568" y="64.8096" width="52.1448" height="39.4203" stroke="#192E53" stroke-width="1.21622" stroke-linecap="round" stroke-linejoin="round"/>
<path d="M136.775 78.9915C136.295 78.6461 134.957 78.187 129.352 78.187C123.346 78.187 122.454 78.7142 122.168 78.8863C120.646 79.8009 120.502 83.8491 120.488 84.67C120.507 85.7543 120.682 89.361 122.167 90.2531C122.453 90.4252 123.339 90.9494 129.353 90.9494C134.961 90.9494 136.297 90.4921 136.775 90.1485C138.072 89.215 138.222 86.0012 138.226 84.6561C138.222 83.5736 138.109 79.9517 136.775 78.9915Z" fill="white" stroke="#192E53" stroke-width="1.21622" stroke-linecap="round" stroke-linejoin="round"/>
<path d="M131.899 84.8987L128.816 87.1383C128.575 87.3147 128.227 87.1463 128.227 86.8379V82.3599C128.227 82.0588 128.569 81.8801 128.816 82.0594L131.899 84.2985C132.103 84.4463 132.103 84.7515 131.899 84.8987Z" fill="white" stroke="#192E53" stroke-width="1.21622" stroke-linecap="round" stroke-linejoin="round"/>
<g opacity="0.8">
<g style="mix-blend-mode:multiply">
<circle cx="228.314" cy="87.2742" r="12.1829" fill="url(#paint8_linear_203_2242)"/>
</g>
<circle cx="226.898" cy="88.428" r="12.1829" stroke="#192E53" stroke-width="1.21622" stroke-linecap="round" stroke-linejoin="round"/>
<path d="M236.61 95.7812L245.568 104.741C246.219 105.392 246.219 106.448 245.568 107.1V107.1C244.916 107.752 243.86 107.752 243.209 107.1L234.25 98.1413" stroke="#192E53" stroke-width="1.21622" stroke-linecap="round" stroke-linejoin="round"/>
<path d="M231.725 86.7337C232.303 86.7331 232.771 86.2655 232.771 85.6884C232.771 85.1107 232.303 84.6431 231.726 84.6431C231.148 84.6431 230.681 85.1113 230.681 85.6884C230.681 86.2655 231.148 86.7331 231.725 86.7337Z" stroke="white" stroke-width="1.21622" stroke-linecap="round" stroke-linejoin="round"/>
<path d="M226.773 93.8421C227.35 93.8415 227.818 93.3739 227.818 92.7962C227.818 92.2191 227.351 91.7508 226.773 91.7515C226.196 91.7515 225.728 92.2191 225.728 92.7968C225.728 93.3739 226.196 93.8415 226.773 93.8421L226.773 93.8421Z" stroke="white" stroke-width="1.21622" stroke-linecap="round" stroke-linejoin="round"/>
<path d="M221.824 88.3314C222.401 88.3314 222.869 87.8631 222.869 87.2861C222.869 86.7083 222.401 86.2407 221.824 86.2407C221.247 86.2407 220.778 86.709 220.778 87.2861C220.778 87.8631 221.247 88.3314 221.824 88.3314Z" stroke="white" stroke-width="1.21622" stroke-linecap="round" stroke-linejoin="round"/>
<path d="M232.595 86.2681L234.633 87.7825" stroke="white" stroke-width="1.21622" stroke-linecap="round" stroke-linejoin="round"/>
<path d="M231.154 86.5645L227.337 91.9198" stroke="white" stroke-width="1.21622" stroke-linecap="round" stroke-linejoin="round"/>
<path d="M226.069 92.0285L222.542 88.0723" stroke="white" stroke-width="1.21622" stroke-linecap="round" stroke-linejoin="round"/>
<path d="M220.909 87.7847L219.136 88.6437" stroke="white" stroke-width="1.21622" stroke-linecap="round" stroke-linejoin="round"/>
</g>
<g opacity="0.8">
<path d="M164.66 11.2139C153.139 11.2139 143.799 20.5538 143.799 32.0744H150.058C150.058 24.0097 156.595 17.4719 164.66 17.4719C172.725 17.4719 179.263 24.0097 179.263 32.0744H185.521C185.521 20.5538 176.181 11.2139 164.66 11.2139Z" fill="white" stroke="#192E53" stroke-width="1.21622" stroke-linecap="round" stroke-linejoin="round"/>
<g style="mix-blend-mode:multiply">
<path d="M145.161 30.7171C145.258 23.9842 148.596 18.0383 153.683 14.3587L156.896 19.0073C153.282 21.6639 150.908 25.9096 150.812 30.7171H145.161Z" fill="url(#paint9_linear_203_2242)"/>
<path d="M145.161 30.7171C145.258 23.9842 148.596 18.0383 153.683 14.3587L156.896 19.0073C153.282 21.6639 150.908 25.9096 150.812 30.7171H145.161Z" stroke="white" stroke-width="0.608108"/>
</g>
<g style="mix-blend-mode:multiply">
<path d="M174.692 19.1226L178.018 14.556C182.953 18.2488 186.176 24.1034 186.272 30.7173H180.62C180.525 25.9791 178.218 21.7863 174.692 19.1226Z" fill="url(#paint10_linear_203_2242)"/>
<path d="M174.692 19.1226L178.018 14.556C182.953 18.2488 186.176 24.1034 186.272 30.7173H180.62C180.525 25.9791 178.218 21.7863 174.692 19.1226Z" stroke="white" stroke-width="0.608108"/>
</g>
<g style="mix-blend-mode:multiply">
<path d="M154.177 14.0097C157.467 11.7745 161.435 10.4642 165.711 10.4642C170.108 10.4642 174.179 11.8481 177.521 14.1989L174.194 18.766C171.786 17.0964 168.864 16.1147 165.711 16.1147C162.629 16.1147 159.766 17.0536 157.389 18.6572L154.177 14.0097Z" fill="url(#paint11_linear_203_2242)"/>
<path d="M154.177 14.0097C157.467 11.7745 161.435 10.4642 165.711 10.4642C170.108 10.4642 174.179 11.8481 177.521 14.1989L174.194 18.766C171.786 17.0964 168.864 16.1147 165.711 16.1147C162.629 16.1147 159.766 17.0536 157.389 18.6572L154.177 14.0097Z" stroke="white" stroke-width="0.608108"/>
</g>
<ellipse cx="164.882" cy="30.1788" rx="2.02445" ry="2.07083" transform="rotate(-14.2354 164.882 30.1788)" fill="white" stroke="#192E53" stroke-width="1.21622" stroke-linecap="round" stroke-linejoin="round"/>
<path d="M165.912 28.4072L173.338 16.1138L165.912 28.4072Z" fill="white"/>
<path d="M165.912 28.4072L173.338 16.1138" stroke="#192E53" stroke-width="1.21622" stroke-linecap="round" stroke-linejoin="round"/>
</g>
<defs>
<linearGradient id="paint0_linear_203_2242" x1="83.2725" y1="43.0651" x2="98.6084" y2="43.0651" gradientUnits="userSpaceOnUse">
<stop stop-color="#F47A4B"/>
<stop offset="1" stop-color="#F79975"/>
</linearGradient>
<linearGradient id="paint1_linear_203_2242" x1="205.327" y1="32.89" x2="217.362" y2="32.89" gradientUnits="userSpaceOnUse">
<stop stop-color="#BFDEAB"/>
<stop offset="1" stop-color="#82D1DA"/>
</linearGradient>
<linearGradient id="paint2_linear_203_2242" x1="37.2334" y1="33.1865" x2="55.3105" y2="33.1865" gradientUnits="userSpaceOnUse">
<stop stop-color="#F47A4B"/>
<stop offset="1" stop-color="#F79975"/>
</linearGradient>
<linearGradient id="paint3_linear_203_2242" x1="115.732" y1="57.039" x2="133.81" y2="57.039" gradientUnits="userSpaceOnUse">
<stop stop-color="#BFDEAB"/>
<stop offset="1" stop-color="#82D1DA"/>
</linearGradient>
<linearGradient id="paint4_linear_203_2242" x1="79.7139" y1="102.084" x2="97.7909" y2="102.084" gradientUnits="userSpaceOnUse">
<stop stop-color="#0075C2"/>
<stop offset="1" stop-color="#82D1DA"/>
</linearGradient>
<linearGradient id="paint5_linear_203_2242" x1="40.6592" y1="96.3411" x2="69.3118" y2="96.3411" gradientUnits="userSpaceOnUse">
<stop stop-color="#FFDD15"/>
<stop offset="1" stop-color="#FBE29B"/>
</linearGradient>
<linearGradient id="paint6_linear_203_2242" x1="52.7178" y1="84.0746" x2="62.0594" y2="84.0746" gradientUnits="userSpaceOnUse">
<stop stop-color="#BFDEAB" stop-opacity="0.501961"/>
<stop offset="1" stop-color="#28B473"/>
</linearGradient>
<linearGradient id="paint7_linear_203_2242" x1="-1143.2" y1="-119.601" x2="-1091.05" y2="-119.601" gradientUnits="userSpaceOnUse">
<stop stop-color="#70CCD7"/>
<stop offset="1" stop-color="#00ADEE"/>
</linearGradient>
<linearGradient id="paint8_linear_203_2242" x1="216.131" y1="99.457" x2="240.496" y2="99.457" gradientUnits="userSpaceOnUse">
<stop stop-color="#0075C2"/>
<stop offset="1" stop-color="#82D1DA"/>
</linearGradient>
<linearGradient id="paint9_linear_203_2242" x1="144.854" y1="31.0212" x2="157.316" y2="31.0212" gradientUnits="userSpaceOnUse">
<stop stop-color="#F47A4B"/>
<stop offset="1" stop-color="#F79975"/>
</linearGradient>
<linearGradient id="paint10_linear_203_2242" x1="174.268" y1="31.0212" x2="186.578" y2="31.0212" gradientUnits="userSpaceOnUse">
<stop stop-color="#82D1DA"/>
<stop offset="1" stop-color="#BFDEAB"/>
</linearGradient>
<linearGradient id="paint11_linear_203_2242" x1="153.754" y1="19.1878" x2="177.947" y2="19.1878" gradientUnits="userSpaceOnUse">
<stop stop-color="#FFDD15"/>
<stop offset="1" stop-color="#FBE29B"/>
</linearGradient>
</defs>
</svg>
