<svg width="236" height="155" viewBox="0 0 236 155" fill="none" xmlns="http://www.w3.org/2000/svg">
<path d="M233.722 106.966L230.656 103.9C230.358 103.602 230.358 103.121 230.656 102.823C230.952 102.526 231.435 102.526 231.731 102.823L234.797 105.889C235.094 106.187 235.094 106.668 234.797 106.966C234.501 107.262 234.018 107.262 233.722 106.966Z" fill="#D2D7DC"/>
<path d="M230.655 106.965C230.358 106.669 230.358 106.187 230.655 105.89L233.721 102.824C234.018 102.527 234.5 102.527 234.797 102.824C235.094 103.12 235.094 103.603 234.797 103.899L231.731 106.965C231.434 107.263 230.952 107.263 230.655 106.965Z" fill="#D2D7DC"/>
<rect x="207.51" y="120.523" width="17.6463" height="1.52163" fill="#D2D7DC"/>
<rect x="226.683" y="120.523" width="3.62178" height="1.52163" fill="#D2D7DC"/>
<path d="M218.664 80.2937C218.664 81.0477 218.053 81.6595 217.298 81.6595C216.543 81.6595 215.932 81.0477 215.932 80.2937C215.932 79.539 216.543 78.9272 217.298 78.9272C218.053 78.9272 218.664 79.539 218.664 80.2937Z" fill="#D2D7DC"/>
<path d="M23.275 36.5777L20.2089 33.5116C19.9121 33.2143 19.9121 32.7327 20.2089 32.4359C20.5056 32.1385 20.9879 32.1385 21.2846 32.4359L24.3507 35.502C24.6481 35.7987 24.6481 36.281 24.3507 36.5777C24.054 36.8745 23.5718 36.8745 23.275 36.5777Z" fill="#D2D7DC"/>
<path d="M20.2089 36.5773C19.9121 36.2805 19.9121 35.7983 20.2089 35.5016L23.2756 32.4355C23.5724 32.1387 24.054 32.1387 24.3514 32.4355C24.6481 32.7322 24.6481 33.2144 24.3514 33.5112L21.2853 36.5773C20.9879 36.8747 20.5063 36.8747 20.2089 36.5773Z" fill="#D2D7DC"/>
<rect x="0.643555" y="46.7412" width="17.6463" height="1.52163" fill="#D2D7DC"/>
<rect x="19.8096" y="46.7412" width="3.62228" height="1.52163" fill="#D2D7DC"/>
<path d="M23.8982 21.8761C23.8982 22.4769 23.411 22.964 22.8096 22.964C22.2088 22.964 21.7217 22.4769 21.7217 21.8761C21.7217 21.2747 22.2088 20.7876 22.8096 20.7876C23.411 20.7876 23.8982 21.2747 23.8982 21.8761Z" fill="#D2D7DC"/>
<rect x="16.8457" y="133.748" width="29.1047" height="1.52162" fill="#D2D7DC"/>
<rect x="11.8398" y="133.748" width="3.00701" height="1.52162" fill="#D2D7DC"/>
<path d="M173.895 114.186L176.766 113.555L167.393 70.9004L123.09 80.7575L126.764 97.4788" stroke="#192E53" stroke-width="2.70417" stroke-linecap="round" stroke-linejoin="round"/>
<path d="M85.6904 98.8314V87.9593C85.6904 86.2327 87.1356 84.8291 88.9125 84.8291H99.2519C101.474 84.8291 103.696 91.8991 103.696 91.8991H119.889" stroke="#192E53" stroke-width="2.70417" stroke-linecap="round" stroke-linejoin="round"/>
<path d="M138.661 93.4535C138.744 93.8128 138.729 94.1351 138.618 94.4203C138.507 94.7029 138.318 94.941 138.054 95.1345C137.791 95.3249 137.475 95.4626 137.105 95.5478C136.735 95.633 136.389 95.6478 136.067 95.5922C135.744 95.5339 135.469 95.4025 135.243 95.1978C135.015 94.9906 134.86 94.7072 134.778 94.3479C134.722 94.1066 134.72 93.8777 134.773 93.6613C134.824 93.4422 134.921 93.2432 135.062 93.0644C135.205 92.8822 135.386 92.7273 135.605 92.5995C135.824 92.469 136.072 92.3718 136.35 92.3077C136.723 92.222 137.071 92.2108 137.395 92.2743C137.719 92.3378 137.992 92.4695 138.215 92.6695C138.438 92.8695 138.586 93.1309 138.661 93.4535ZM137.503 93.6415C137.462 93.4658 137.393 93.3228 137.296 93.2126C137.201 93.0992 137.085 93.0223 136.949 92.9819C136.812 92.9415 136.664 92.9397 136.504 92.9766C136.344 93.0134 136.212 93.0799 136.107 93.1758C136.002 93.2718 135.93 93.3919 135.892 93.5362C135.855 93.6772 135.857 93.8355 135.897 94.0113C135.937 94.1844 136.004 94.3263 136.099 94.4371C136.196 94.5473 136.313 94.6226 136.449 94.663C136.588 94.7002 136.738 94.7 136.901 94.6626C137.063 94.6251 137.196 94.56 137.299 94.4673C137.404 94.3713 137.474 94.2531 137.508 94.1127C137.544 93.9717 137.542 93.8146 137.503 93.6415ZM137.931 90.8416C137.998 91.1328 137.98 91.4089 137.877 91.6702C137.774 91.9287 137.599 92.1527 137.352 92.342C137.109 92.5308 136.811 92.6656 136.46 92.7466C136.105 92.8281 135.776 92.8377 135.472 92.7752C135.167 92.7128 134.912 92.5879 134.706 92.4006C134.499 92.2107 134.362 91.9701 134.295 91.679C134.216 91.3328 134.226 91.0238 134.326 90.7521C134.429 90.4772 134.602 90.2466 134.846 90.0605C135.094 89.8738 135.391 89.7403 135.74 89.6599C136.094 89.5784 136.422 89.5678 136.723 89.6283C137.027 89.6881 137.284 89.8195 137.493 90.0226C137.705 90.2224 137.851 90.4954 137.931 90.8416ZM136.809 91.1538C136.774 90.999 136.715 90.8716 136.634 90.7715C136.553 90.6688 136.453 90.5977 136.337 90.5583C136.222 90.5183 136.092 90.5153 135.945 90.5491C135.803 90.5817 135.688 90.64 135.6 90.7239C135.514 90.8072 135.457 90.9128 135.429 91.0409C135.402 91.1658 135.407 91.3082 135.444 91.4682C135.48 91.623 135.537 91.7533 135.617 91.8593C135.699 91.962 135.798 92.0344 135.916 92.0764C136.033 92.1184 136.164 92.1228 136.308 92.0895C136.452 92.0563 136.567 91.9954 136.651 91.9069C136.739 91.8178 136.795 91.7095 136.821 91.582C136.849 91.4513 136.845 91.3085 136.809 91.1538ZM143.31 91.7819L143.514 92.6711L139.387 93.6217L139.174 92.9459L140.689 88.6071L141.59 88.3995L140.99 90.257L140.253 92.4861L143.31 91.7819ZM141.834 88.3433L143.153 94.0717L142.02 94.3327L140.701 88.6043L141.834 88.3433ZM145.317 92.5665L145.488 93.3267C145.555 93.6179 145.55 93.9286 145.471 94.2588C145.395 94.5884 145.267 94.8733 145.088 95.1135L144.428 94.9465C144.466 94.8107 144.502 94.6753 144.537 94.5401C144.572 94.405 144.594 94.2604 144.603 94.1065C144.612 93.9526 144.595 93.7838 144.553 93.6002L144.365 92.7858L145.317 92.5665ZM150.114 91.5363L150.318 92.4215L146.399 93.3241L146.225 92.5687L147.621 90.155C147.759 89.9049 147.864 89.6888 147.935 89.5067C148.006 89.3219 148.05 89.1611 148.069 89.0244C148.089 88.8844 148.086 88.7567 148.059 88.6412C148.019 88.4681 147.956 88.3266 147.87 88.2166C147.783 88.104 147.676 88.0266 147.547 87.9844C147.422 87.9415 147.277 87.9389 147.115 87.9763C146.942 88.0162 146.802 88.0926 146.695 88.2055C146.591 88.3179 146.524 88.4563 146.493 88.6209C146.464 88.7849 146.471 88.9614 146.515 89.1502L145.378 89.4121C145.299 89.0711 145.309 88.7403 145.406 88.4196C145.503 88.0962 145.68 87.8165 145.938 87.5803C146.195 87.3416 146.527 87.1754 146.933 87.0817C147.335 86.9893 147.688 86.9769 147.994 87.0446C148.301 87.1091 148.554 87.247 148.752 87.4583C148.952 87.6664 149.09 87.9383 149.168 88.274C149.211 88.4629 149.224 88.6547 149.205 88.8496C149.186 89.0419 149.14 89.2402 149.069 89.4445C148.999 89.6456 148.906 89.8548 148.791 90.072C148.675 90.2892 148.544 90.5169 148.397 90.7551L147.659 92.1018L150.114 91.5363ZM154.106 88.0025L154.334 88.9939C154.433 89.4241 154.473 89.8058 154.453 90.1391C154.432 90.4697 154.359 90.7546 154.231 90.9939C154.106 91.2298 153.937 91.4222 153.722 91.571C153.508 91.7198 153.256 91.8275 152.968 91.8939C152.737 91.9471 152.515 91.9678 152.303 91.956C152.09 91.9416 151.888 91.8898 151.699 91.8008C151.513 91.7111 151.34 91.5839 151.181 91.419C151.023 91.2509 150.883 91.04 150.761 90.7864C150.64 90.5327 150.539 90.2328 150.459 89.8866L150.231 88.8951C150.131 88.465 150.092 88.0859 150.114 87.7579C150.137 87.4266 150.211 87.143 150.336 86.907C150.464 86.6704 150.635 86.479 150.85 86.3329C151.064 86.1841 151.316 86.0764 151.604 86.01C151.835 85.9568 152.056 85.9377 152.267 85.9527C152.479 85.9645 152.68 86.0136 152.868 86.1001C153.056 86.1865 153.229 86.3138 153.387 86.4819C153.544 86.6474 153.683 86.8569 153.805 87.1106C153.926 87.3616 154.027 87.6589 154.106 88.0025ZM153.232 89.4053L152.934 88.1109C152.886 87.9037 152.832 87.7255 152.773 87.5762C152.716 87.4262 152.653 87.3027 152.584 87.2054C152.514 87.1055 152.438 87.029 152.357 86.9759C152.276 86.9228 152.19 86.8902 152.099 86.8781C152.007 86.8659 151.911 86.8716 151.808 86.8952C151.68 86.9248 151.571 86.976 151.483 87.0488C151.398 87.121 151.333 87.22 151.291 87.3459C151.247 87.4691 151.228 87.6255 151.233 87.8149C151.24 88.0011 151.273 88.2227 151.332 88.4798L151.63 89.7742C151.678 89.9814 151.731 90.1613 151.788 90.3138C151.848 90.4657 151.913 90.593 151.983 90.6955C152.056 90.7948 152.132 90.8726 152.211 90.9289C152.293 90.982 152.379 91.0146 152.47 91.0267C152.564 91.0383 152.662 91.0323 152.764 91.0087C152.89 90.9797 152.996 90.9291 153.081 90.8569C153.169 90.7815 153.234 90.6809 153.277 90.555C153.322 90.4259 153.34 90.2669 153.333 90.0781C153.325 89.8893 153.291 89.665 153.232 89.4053ZM156.04 87.5693L156.646 87.4298C156.84 87.3851 156.993 87.3154 157.104 87.2209C157.214 87.1237 157.285 87.0078 157.318 86.8732C157.352 86.7355 157.351 86.5853 157.313 86.4227C157.279 86.2758 157.221 86.1526 157.137 86.0531C157.055 85.9504 156.95 85.8808 156.82 85.8445C156.689 85.8055 156.536 85.8062 156.36 85.8467C156.221 85.8787 156.099 85.9359 155.994 86.0181C155.888 86.1004 155.812 86.1995 155.764 86.3155C155.716 86.4315 155.708 86.5603 155.741 86.7019L154.604 86.9638C154.532 86.6491 154.552 86.3557 154.666 86.0835C154.783 85.8108 154.969 85.576 155.225 85.379C155.481 85.182 155.78 85.0439 156.124 84.9648C156.512 84.8754 156.866 84.8601 157.187 84.9189C157.506 84.9751 157.775 85.1052 157.993 85.309C158.211 85.5129 158.362 85.7931 158.444 86.1499C158.485 86.3308 158.484 86.5162 158.439 86.7061C158.394 86.8933 158.308 87.0732 158.182 87.2458C158.058 87.4152 157.894 87.5663 157.69 87.6989C157.485 87.829 157.244 87.926 156.966 87.99L156.179 88.1713L156.04 87.5693ZM156.239 88.431L156.104 87.8447L156.891 87.6635C157.203 87.5916 157.485 87.5639 157.737 87.5803C157.99 87.5968 158.211 87.6534 158.402 87.7504C158.592 87.8446 158.749 87.9729 158.872 88.1352C158.994 88.2948 159.081 88.4835 159.131 88.7012C159.192 88.9687 159.196 89.2192 159.142 89.4525C159.088 89.6833 158.984 89.8923 158.831 90.0794C158.681 90.266 158.491 90.4257 158.262 90.5585C158.032 90.6888 157.772 90.7874 157.481 90.8545C157.239 90.9101 156.994 90.9319 156.746 90.9201C156.499 90.9051 156.266 90.8525 156.047 90.7622C155.829 90.6687 155.64 90.5326 155.48 90.354C155.322 90.1722 155.211 89.9397 155.146 89.6564L156.283 89.3945C156.316 89.5414 156.383 89.6641 156.483 89.7625C156.583 89.861 156.705 89.9283 156.849 89.9642C156.995 89.9996 157.148 89.9989 157.308 89.962C157.489 89.9203 157.636 89.8519 157.75 89.7567C157.865 89.6583 157.943 89.5409 157.984 89.4046C158.026 89.265 158.028 89.1139 157.991 88.9513C157.943 88.7414 157.866 88.5823 157.761 88.4739C157.655 88.3629 157.525 88.2936 157.369 88.2659C157.214 88.2382 157.039 88.2467 156.845 88.2914L156.239 88.431Z" fill="#192E53"/>
<path d="M141.604 85.3584C141.593 85.3117 141.576 85.2715 141.553 85.2377C141.531 85.2024 141.498 85.1735 141.454 85.1509C141.409 85.1271 141.35 85.1074 141.276 85.0917C141.201 85.076 141.107 85.0637 140.993 85.0547C140.865 85.0437 140.743 85.0265 140.625 85.0031C140.509 84.9795 140.403 84.9453 140.307 84.9006C140.212 84.8545 140.131 84.7942 140.065 84.72C139.999 84.6454 139.954 84.5519 139.928 84.4393C139.903 84.3304 139.904 84.2261 139.932 84.1264C139.959 84.0256 140.008 83.9335 140.08 83.8502C140.151 83.7657 140.242 83.6925 140.351 83.6308C140.461 83.5687 140.587 83.5215 140.729 83.4889C140.921 83.4445 141.098 83.4405 141.257 83.4768C141.417 83.5132 141.55 83.5827 141.657 83.6855C141.765 83.7879 141.837 83.917 141.873 84.0726L141.338 84.1959C141.32 84.1193 141.289 84.056 141.243 84.0059C141.198 83.9544 141.14 83.9194 141.067 83.9007C140.996 83.8818 140.912 83.8835 140.815 83.9059C140.722 83.9274 140.647 83.9597 140.592 84.0028C140.536 84.0447 140.498 84.0931 140.478 84.1482C140.457 84.2021 140.454 84.2583 140.467 84.317C140.478 84.3613 140.498 84.3989 140.527 84.4299C140.558 84.4606 140.6 84.4864 140.651 84.5073C140.703 84.5282 140.764 84.545 140.835 84.5577C140.906 84.5703 140.987 84.58 141.078 84.5868C141.23 84.5971 141.367 84.6168 141.487 84.6458C141.608 84.6746 141.713 84.7141 141.802 84.7643C141.89 84.8146 141.963 84.8779 142.019 84.9544C142.076 85.0308 142.117 85.123 142.142 85.2307C142.168 85.3445 142.169 85.4514 142.146 85.5514C142.122 85.6514 142.075 85.7422 142.006 85.8238C141.936 85.9053 141.847 85.9757 141.739 86.0347C141.63 86.0938 141.504 86.1399 141.36 86.173C141.231 86.2028 141.099 86.2154 140.966 86.2108C140.832 86.2051 140.706 86.1793 140.587 86.1336C140.469 86.0876 140.367 86.0177 140.281 85.924C140.196 85.8303 140.136 85.7098 140.102 85.5626L140.642 85.438C140.661 85.5195 140.689 85.5854 140.728 85.6359C140.766 85.6864 140.812 85.7238 140.865 85.748C140.92 85.772 140.981 85.7844 141.048 85.7854C141.116 85.786 141.188 85.7776 141.265 85.7599C141.358 85.7384 141.432 85.7076 141.486 85.6674C141.541 85.627 141.577 85.5802 141.595 85.5268C141.614 85.4732 141.617 85.4171 141.604 85.3584ZM143.537 85.6716C143.386 85.7063 143.245 85.7136 143.115 85.6932C142.983 85.6717 142.866 85.6275 142.762 85.5606C142.66 85.4934 142.573 85.4081 142.503 85.3045C142.432 85.1998 142.382 85.0827 142.352 84.9534L142.336 84.8816C142.302 84.7343 142.292 84.5948 142.305 84.463C142.319 84.3312 142.355 84.2114 142.412 84.1037C142.47 83.9957 142.55 83.9048 142.652 83.8309C142.753 83.7559 142.874 83.7021 143.015 83.6696C143.153 83.6379 143.28 83.6325 143.397 83.6534C143.515 83.6744 143.619 83.7185 143.71 83.7858C143.802 83.8528 143.88 83.9407 143.945 84.0495C144.008 84.1571 144.057 84.2821 144.09 84.4246L144.139 84.6401L142.595 84.9959L142.515 84.6511L143.551 84.4124L143.542 84.3728C143.526 84.301 143.498 84.24 143.459 84.1898C143.42 84.1381 143.371 84.1014 143.312 84.0797C143.253 84.0581 143.183 84.0565 143.103 84.0749C143.035 84.0907 142.98 84.1192 142.937 84.1604C142.895 84.2016 142.865 84.2528 142.846 84.3138C142.828 84.3746 142.82 84.4433 142.822 84.52C142.824 84.5951 142.835 84.6758 142.855 84.762L142.871 84.8339C142.889 84.9117 142.916 84.981 142.953 85.0419C142.991 85.1026 143.036 85.1521 143.088 85.1906C143.141 85.2289 143.199 85.2544 143.264 85.2672C143.33 85.2798 143.401 85.2774 143.476 85.26C143.57 85.2385 143.652 85.2005 143.724 85.1461C143.797 85.0903 143.854 85.0185 143.896 84.9307L144.21 85.1458C144.183 85.2138 144.14 85.2829 144.082 85.3531C144.025 85.423 143.951 85.4866 143.861 85.5439C143.771 85.6001 143.663 85.6426 143.537 85.6716ZM145.548 84.6051C145.539 84.5679 145.521 84.5369 145.492 84.5119C145.464 84.487 145.417 84.4687 145.353 84.457C145.289 84.4439 145.201 84.4391 145.087 84.4427C144.984 84.4438 144.886 84.4379 144.793 84.4252C144.702 84.4109 144.619 84.3877 144.546 84.3553C144.475 84.3227 144.414 84.2786 144.365 84.2231C144.315 84.1665 144.281 84.0968 144.262 84.0142C144.243 83.9328 144.243 83.8522 144.261 83.7723C144.28 83.6922 144.317 83.617 144.37 83.5468C144.424 83.475 144.495 83.4126 144.584 83.3594C144.673 83.3047 144.779 83.2635 144.899 83.2356C145.068 83.1967 145.219 83.1903 145.353 83.2163C145.487 83.2421 145.598 83.2948 145.684 83.3745C145.772 83.4527 145.829 83.5517 145.857 83.6714L145.339 83.7906C145.328 83.7403 145.307 83.6979 145.276 83.6633C145.246 83.6273 145.207 83.603 145.157 83.5905C145.108 83.5764 145.049 83.5774 144.98 83.5934C144.923 83.6067 144.875 83.6283 144.838 83.6583C144.8 83.6871 144.774 83.7209 144.759 83.7597C144.745 83.797 144.743 83.8354 144.752 83.8749C144.759 83.9048 144.771 83.9304 144.788 83.9516C144.807 83.9713 144.832 83.9874 144.866 84C144.899 84.0125 144.94 84.0219 144.989 84.0282C145.04 84.033 145.1 84.0341 145.172 84.0316C145.318 84.0281 145.452 84.037 145.573 84.0583C145.694 84.0784 145.796 84.1205 145.878 84.1847C145.961 84.2476 146.017 84.3425 146.046 84.4695C146.066 84.5557 146.065 84.6391 146.043 84.7198C146.022 84.8005 145.981 84.876 145.921 84.9464C145.862 85.0157 145.785 85.0769 145.691 85.13C145.599 85.1816 145.49 85.2217 145.365 85.2504C145.185 85.2921 145.024 85.295 144.883 85.2593C144.744 85.2234 144.63 85.1631 144.543 85.0786C144.456 84.9927 144.401 84.897 144.376 84.7916L144.867 84.6787C144.885 84.7488 144.917 84.8015 144.96 84.8369C145.005 84.872 145.056 84.8931 145.113 84.9001C145.171 84.9069 145.231 84.9031 145.293 84.8887C145.361 84.8733 145.414 84.8515 145.454 84.8233C145.494 84.7939 145.522 84.7611 145.538 84.7247C145.554 84.6869 145.557 84.647 145.548 84.6051ZM147.437 84.1698C147.429 84.1327 147.41 84.1017 147.382 84.0767C147.353 84.0517 147.307 84.0334 147.242 84.0218C147.179 84.0087 147.09 84.0039 146.976 84.0075C146.873 84.0085 146.775 84.0027 146.683 83.9899C146.591 83.9757 146.509 83.9524 146.436 83.9201C146.364 83.8874 146.304 83.8434 146.254 83.7879C146.205 83.7313 146.17 83.6616 146.151 83.579C146.132 83.4976 146.132 83.4169 146.15 83.3371C146.17 83.257 146.206 83.1818 146.259 83.1115C146.313 83.0398 146.385 82.9774 146.473 82.9242C146.563 82.8695 146.668 82.8282 146.789 82.8004C146.958 82.7615 147.109 82.755 147.242 82.7811C147.377 82.8068 147.487 82.8595 147.574 82.9393C147.661 83.0175 147.719 83.1165 147.746 83.2362L147.229 83.3554C147.217 83.3051 147.196 83.2626 147.166 83.2281C147.136 83.1921 147.096 83.1678 147.047 83.1552C146.998 83.1412 146.939 83.1422 146.87 83.1582C146.812 83.1714 146.765 83.1931 146.727 83.2231C146.69 83.2519 146.664 83.2857 146.649 83.3244C146.635 83.3617 146.632 83.4001 146.641 83.4397C146.648 83.4696 146.66 83.4952 146.678 83.5164C146.696 83.5361 146.722 83.5522 146.755 83.5647C146.788 83.5773 146.83 83.5867 146.879 83.593C146.929 83.5978 146.99 83.5989 147.061 83.5964C147.208 83.5928 147.342 83.6017 147.463 83.623C147.583 83.6432 147.685 83.6853 147.768 83.7494C147.851 83.8124 147.906 83.9073 147.936 84.0342C147.956 84.1205 147.955 84.2039 147.933 84.2846C147.911 84.3652 147.87 84.4408 147.811 84.5112C147.751 84.5805 147.675 84.6416 147.581 84.6947C147.488 84.7464 147.38 84.7865 147.255 84.8152C147.074 84.8568 146.913 84.8598 146.773 84.8241C146.633 84.7881 146.52 84.7279 146.432 84.6434C146.346 84.5575 146.29 84.4618 146.266 84.3564L146.756 84.2435C146.775 84.3136 146.806 84.3663 146.85 84.4017C146.894 84.4368 146.945 84.4579 147.002 84.4649C147.06 84.4716 147.121 84.4678 147.183 84.4535C147.25 84.438 147.304 84.4162 147.344 84.3881C147.384 84.3587 147.411 84.3258 147.427 84.2895C147.444 84.2516 147.447 84.2117 147.437 84.1698ZM148.498 82.4445L148.946 84.3879L148.427 84.5075L147.979 82.5641L148.498 82.4445ZM147.83 82.065C147.813 81.9896 147.825 81.9212 147.866 81.86C147.907 81.7988 147.972 81.758 148.061 81.7375C148.149 81.7174 148.224 81.7258 148.288 81.7628C148.353 81.7995 148.395 81.8555 148.412 81.931C148.429 82.0064 148.417 82.0749 148.374 82.1364C148.333 82.1976 148.268 82.2383 148.181 82.2584C148.092 82.2788 148.016 82.2706 147.952 82.2336C147.888 82.1966 147.847 82.1404 147.83 82.065ZM149.071 83.3565L149.063 83.3188C149.03 83.1763 149.02 83.0405 149.033 82.9114C149.046 82.7811 149.081 82.6626 149.139 82.5561C149.196 82.4496 149.276 82.3587 149.378 82.2834C149.481 82.2069 149.605 82.1517 149.753 82.1177C149.9 82.0838 150.037 82.0788 150.163 82.1026C150.29 82.1252 150.402 82.1718 150.5 82.2425C150.6 82.3129 150.684 82.4039 150.752 82.5155C150.82 82.6258 150.871 82.7523 150.904 82.8947L150.912 82.9325C150.945 83.0738 150.955 83.2096 150.942 83.3399C150.929 83.469 150.893 83.5876 150.835 83.6956C150.777 83.8021 150.697 83.893 150.595 83.9683C150.493 84.0436 150.368 84.0982 150.22 84.1322C150.073 84.1661 149.936 84.1717 149.81 84.1491C149.685 84.1262 149.573 84.0796 149.473 84.0092C149.375 83.9373 149.291 83.8462 149.223 83.7358C149.155 83.6242 149.104 83.4978 149.071 83.3565ZM149.58 83.1997L149.589 83.2374C149.607 83.3188 149.632 83.3932 149.663 83.4605C149.693 83.5279 149.731 83.5849 149.774 83.6316C149.819 83.6768 149.87 83.7085 149.928 83.7266C149.987 83.7446 150.053 83.7451 150.127 83.728C150.199 83.7115 150.257 83.6823 150.302 83.6405C150.347 83.5987 150.378 83.5479 150.397 83.488C150.416 83.427 150.424 83.3595 150.423 83.2855C150.422 83.2113 150.412 83.1335 150.393 83.052L150.385 83.0143C150.366 82.9353 150.342 82.8628 150.31 82.797C150.279 82.7296 150.242 82.6727 150.197 82.6263C150.153 82.5784 150.102 82.5448 150.043 82.5255C149.985 82.5063 149.919 82.505 149.846 82.5219C149.773 82.5387 149.714 82.5686 149.67 82.6116C149.627 82.6543 149.595 82.7069 149.575 82.7695C149.557 82.8305 149.548 82.898 149.55 82.972C149.552 83.0447 149.562 83.1206 149.58 83.1997ZM151.604 82.166L151.956 83.6945L151.439 83.8137L150.991 81.8703L151.476 81.7586L151.604 82.166ZM151.641 82.6719L151.501 82.7042C151.468 82.5605 151.457 82.4269 151.467 82.3034C151.478 82.1787 151.507 82.0679 151.555 81.9711C151.603 81.873 151.669 81.7918 151.751 81.7275C151.834 81.6616 151.933 81.6155 152.048 81.589C152.139 81.568 152.225 81.5621 152.307 81.571C152.388 81.58 152.463 81.607 152.53 81.6521C152.598 81.6969 152.657 81.7632 152.708 81.8512C152.76 81.9389 152.801 82.051 152.833 82.1875L153.118 83.4268L152.597 83.5468L152.311 82.3057C152.292 82.2195 152.264 82.1552 152.229 82.1128C152.194 82.0704 152.151 82.045 152.1 82.0366C152.05 82.0268 151.991 82.0295 151.924 82.045C151.855 82.061 151.797 82.0887 151.752 82.1281C151.708 82.1672 151.675 82.2152 151.653 82.272C151.632 82.3273 151.62 82.3893 151.618 82.4578C151.616 82.5263 151.624 82.5977 151.641 82.6719ZM154.439 82.5572C154.43 82.5201 154.412 82.489 154.383 82.464C154.355 82.4391 154.308 82.4208 154.244 82.4091C154.18 82.396 154.091 82.3913 153.978 82.3948C153.874 82.3959 153.777 82.39 153.684 82.3773C153.593 82.3631 153.51 82.3398 153.437 82.3074C153.365 82.2748 153.305 82.2307 153.255 82.1753C153.206 82.1186 153.172 82.049 153.153 81.9663C153.134 81.8849 153.133 81.8043 153.152 81.7244C153.171 81.6443 153.207 81.5691 153.26 81.4989C153.315 81.4272 153.386 81.3647 153.475 81.3115C153.564 81.2568 153.669 81.2156 153.79 81.1877C153.959 81.1488 154.11 81.1424 154.244 81.1684C154.378 81.1942 154.489 81.2469 154.575 81.3266C154.662 81.4048 154.72 81.5038 154.747 81.6235L154.23 81.7427C154.219 81.6924 154.197 81.65 154.167 81.6154C154.137 81.5794 154.097 81.5551 154.048 81.5426C153.999 81.5286 153.94 81.5296 153.871 81.5455C153.813 81.5588 153.766 81.5804 153.729 81.6104C153.691 81.6392 153.665 81.673 153.65 81.7118C153.636 81.7491 153.633 81.7875 153.642 81.827C153.649 81.8569 153.662 81.8825 153.679 81.9037C153.697 81.9234 153.723 81.9395 153.756 81.9521C153.79 81.9646 153.831 81.974 153.88 81.9803C153.93 81.9851 153.991 81.9862 154.063 81.9837C154.209 81.9802 154.343 81.9891 154.464 82.0104C154.585 82.0305 154.686 82.0726 154.769 82.1368C154.852 82.1997 154.908 82.2947 154.937 82.4216C154.957 82.5078 154.956 82.5912 154.934 82.6719C154.912 82.7526 154.872 82.8281 154.812 82.8986C154.753 82.9678 154.676 83.029 154.582 83.0821C154.489 83.1337 154.381 83.1739 154.256 83.2025C154.075 83.2442 153.915 83.2472 153.774 83.2115C153.635 83.1755 153.521 83.1152 153.434 83.0308C153.347 82.9448 153.292 82.8491 153.267 82.7438L153.758 82.6308C153.776 82.7009 153.807 82.7536 153.851 82.789C153.895 82.8241 153.946 82.8452 154.003 82.8522C154.062 82.859 154.122 82.8552 154.184 82.8408C154.251 82.8254 154.305 82.8036 154.345 82.7754C154.385 82.7461 154.413 82.7132 154.428 82.6768C154.445 82.639 154.448 82.5991 154.439 82.5572Z" fill="#192E53"/>
<path d="M195.04 34.8873L191.951 35.812L190.059 34.199C190.059 34.199 189.071 33.5852 187.754 33.6083L185.38 34.3261L184.063 34.4735L181.003 33.8003L180.482 33.2485L178.369 34.8386L176.107 33.4542L174.687 32.6172L171.485 33.3121L169.453 33.0714L166.656 32.6618L164.764 33.2445L163.959 33.2607L163.38 35.8906L193.368 42.4873L195.04 34.8873Z" fill="url(#paint0_linear_203_2438)"/>
<path d="M154.859 45.9004L201.716 56.2084L201.574 56.8522C201.333 57.9461 200.251 58.6378 199.157 58.3972L156.263 48.9607C155.169 48.72 154.477 47.6381 154.718 46.5442L154.859 45.9004Z" fill="url(#paint1_linear_203_2438)"/>
<path d="M167.457 21.4247L167.312 22.0863L166.962 22.0093L167.107 21.3477L167.457 21.4247ZM166.609 25.0777L166.476 25.681L166.126 25.604L166.259 25.0007L166.609 25.0777ZM167.017 24.3963C167.036 24.3111 167.036 24.2352 167.018 24.1684C167.001 24.1021 166.964 24.0381 166.905 23.9766C166.848 23.9155 166.767 23.8506 166.661 23.7819C166.483 23.6644 166.329 23.5475 166.2 23.4312C166.072 23.3137 165.981 23.1831 165.926 23.0395C165.872 22.8943 165.866 22.7245 165.909 22.5301C165.95 22.3447 166.029 22.1937 166.147 22.077C166.266 21.9604 166.41 21.8825 166.582 21.8435C166.756 21.8033 166.946 21.806 167.154 21.8517C167.312 21.8866 167.451 21.9421 167.569 22.0182C167.687 22.0929 167.783 22.186 167.855 22.2976C167.928 22.4077 167.975 22.5332 167.996 22.6741C168.017 22.8151 168.009 22.9693 167.972 23.1367L167.328 22.9951C167.348 22.9054 167.355 22.824 167.351 22.751C167.347 22.6779 167.331 22.6141 167.304 22.5595C167.278 22.5053 167.242 22.4614 167.197 22.4278C167.151 22.3926 167.098 22.3684 167.036 22.3549C166.945 22.3348 166.866 22.3363 166.8 22.3594C166.734 22.3824 166.681 22.4216 166.64 22.477C166.602 22.5312 166.574 22.5972 166.557 22.675C166.54 22.7512 166.539 22.8207 166.553 22.8834C166.569 22.9465 166.606 23.0095 166.664 23.0725C166.723 23.134 166.807 23.2026 166.915 23.2782C167.093 23.3957 167.246 23.514 167.373 23.6329C167.501 23.7519 167.592 23.8832 167.647 24.0269C167.701 24.1706 167.707 24.3396 167.664 24.534C167.622 24.7268 167.541 24.8814 167.421 24.9978C167.302 25.1126 167.154 25.1881 166.976 25.2244C166.799 25.2591 166.605 25.2531 166.392 25.2064C166.255 25.1762 166.122 25.1281 165.994 25.0623C165.866 24.995 165.756 24.9081 165.663 24.8015C165.571 24.6949 165.507 24.5664 165.471 24.4158C165.435 24.2638 165.439 24.0876 165.484 23.8873L166.129 24.0294C166.105 24.1385 166.1 24.2328 166.112 24.3123C166.124 24.3904 166.149 24.4562 166.186 24.5097C166.225 24.5621 166.272 24.6038 166.328 24.6349C166.384 24.666 166.442 24.6883 166.503 24.7018C166.599 24.7229 166.681 24.7229 166.75 24.702C166.821 24.6815 166.878 24.6447 166.923 24.5918C166.969 24.5378 167.001 24.4726 167.017 24.3963ZM170.08 22.3002L170.712 22.4392C170.914 22.4837 171.088 22.4862 171.235 22.4467C171.382 22.4045 171.5 22.3274 171.591 22.2155C171.685 22.1014 171.75 21.9596 171.788 21.79C171.821 21.6369 171.821 21.4949 171.787 21.3641C171.756 21.2312 171.687 21.1186 171.581 21.0265C171.476 20.9317 171.332 20.8641 171.149 20.8238C171.004 20.792 170.863 20.7912 170.728 20.8216C170.592 20.8519 170.476 20.9109 170.379 20.9986C170.283 21.0863 170.218 21.2039 170.185 21.3516L169 21.0908C169.072 20.7627 169.223 20.4962 169.451 20.2913C169.682 20.087 169.962 19.9493 170.29 19.8782C170.618 19.807 170.962 19.8108 171.32 19.8896C171.725 19.9787 172.064 20.1222 172.339 20.3202C172.614 20.5155 172.809 20.7576 172.923 21.0465C173.037 21.3353 173.053 21.6657 172.972 22.0376C172.93 22.2263 172.846 22.3998 172.719 22.5583C172.593 22.7141 172.433 22.845 172.237 22.9511C172.045 23.0551 171.824 23.1239 171.573 23.1575C171.322 23.1884 171.052 23.172 170.762 23.1082L169.942 22.9278L170.08 22.3002ZM169.882 23.1985L170.017 22.5873L170.837 22.7678C171.163 22.8394 171.44 22.9392 171.67 23.0671C171.9 23.1951 172.083 23.3472 172.219 23.5233C172.356 23.6967 172.446 23.8871 172.489 24.0944C172.533 24.299 172.53 24.5148 172.48 24.7417C172.419 25.0207 172.311 25.2578 172.156 25.4531C172.002 25.6456 171.811 25.7957 171.584 25.9034C171.359 26.0117 171.11 26.0772 170.835 26.1C170.561 26.12 170.273 26.0966 169.969 26.0299C169.718 25.9745 169.478 25.8859 169.249 25.764C169.024 25.64 168.829 25.4866 168.662 25.3038C168.5 25.1189 168.383 24.9069 168.312 24.6677C168.245 24.4264 168.244 24.1581 168.309 23.8628L169.494 24.1236C169.46 24.2767 169.469 24.4219 169.519 24.559C169.569 24.6962 169.653 24.8137 169.772 24.9115C169.894 25.0099 170.038 25.0775 170.205 25.1142C170.394 25.1557 170.562 25.157 170.711 25.1181C170.864 25.0771 170.989 25.0015 171.088 24.8914C171.19 24.7791 171.26 24.6382 171.297 24.4687C171.345 24.2499 171.344 24.0662 171.294 23.9175C171.244 23.7661 171.152 23.6426 171.018 23.5473C170.885 23.4519 170.716 23.382 170.514 23.3374L169.882 23.1985ZM177.308 25.8425C177.225 26.2171 177.068 26.5137 176.837 26.7322C176.606 26.948 176.323 27.0879 175.988 27.1518C175.656 27.2135 175.297 27.202 174.912 27.1172C174.526 27.0323 174.194 26.892 173.916 26.6961C173.639 26.4975 173.439 26.2514 173.318 25.958C173.196 25.6619 173.177 25.3265 173.259 24.9519C173.315 24.7003 173.415 24.4845 173.561 24.3044C173.707 24.1216 173.886 23.9776 174.099 23.8723C174.315 23.765 174.554 23.7001 174.817 23.6777C175.08 23.6525 175.357 23.6718 175.647 23.7356C176.035 23.821 176.367 23.9657 176.644 24.1698C176.92 24.3739 177.118 24.6196 177.238 24.907C177.359 25.1943 177.382 25.5061 177.308 25.8425ZM176.135 25.5029C176.176 25.3197 176.175 25.1546 176.132 25.0077C176.094 24.8587 176.019 24.7348 175.909 24.636C175.799 24.5373 175.66 24.4695 175.494 24.4328C175.327 24.3962 175.173 24.3995 175.031 24.4429C174.89 24.4864 174.769 24.5673 174.668 24.6856C174.571 24.8018 174.502 24.9515 174.462 25.1347C174.422 25.3152 174.422 25.4786 174.462 25.6249C174.504 25.7718 174.58 25.8946 174.69 25.9934C174.804 26.09 174.945 26.157 175.115 26.1943C175.284 26.2316 175.438 26.2296 175.576 26.1883C175.717 26.1449 175.835 26.0647 175.93 25.9479C176.027 25.8317 176.096 25.6834 176.135 25.5029ZM177.786 23.0623C177.719 23.3658 177.579 23.6174 177.366 23.8171C177.154 24.014 176.89 24.1465 176.574 24.2146C176.26 24.2833 175.92 24.2774 175.554 24.1968C175.185 24.1155 174.871 23.9777 174.613 23.7833C174.355 23.5889 174.17 23.3577 174.06 23.0898C173.951 22.8192 173.929 22.5321 173.996 22.2285C174.075 21.8676 174.223 21.5818 174.438 21.3712C174.657 21.1585 174.923 21.0191 175.236 20.9532C175.551 20.8878 175.89 20.8951 176.254 20.9751C176.623 21.0563 176.936 21.1925 177.192 21.3836C177.451 21.5752 177.634 21.8132 177.74 22.0976C177.85 22.3798 177.865 22.7013 177.786 23.0623ZM176.593 22.8557C176.628 22.6944 176.63 22.5486 176.599 22.4184C176.568 22.2855 176.506 22.1745 176.414 22.0854C176.325 21.9969 176.203 21.9358 176.05 21.9021C175.903 21.8696 175.769 21.8731 175.648 21.9125C175.53 21.9526 175.429 22.0264 175.346 22.1341C175.265 22.2397 175.206 22.3758 175.17 22.5426C175.134 22.704 175.13 22.8522 175.158 22.9873C175.189 23.1202 175.25 23.2326 175.342 23.3244C175.433 23.4162 175.554 23.4787 175.705 23.5118C175.855 23.5449 175.99 23.5386 176.109 23.4931C176.23 23.4482 176.332 23.3717 176.413 23.2634C176.497 23.1529 176.557 23.0171 176.593 22.8557ZM182.036 27.6308L181.833 28.5537L177.747 27.655L177.921 26.8675L180.308 25.2211C180.55 25.0478 180.745 24.8915 180.893 24.7521C181.042 24.6099 181.155 24.4786 181.233 24.3582C181.315 24.2356 181.369 24.1142 181.395 23.9939C181.435 23.8134 181.439 23.6523 181.407 23.5106C181.376 23.3661 181.309 23.2453 181.207 23.1484C181.108 23.052 180.974 22.9852 180.804 22.9479C180.624 22.9082 180.458 22.9177 180.308 22.9763C180.16 23.0355 180.035 23.1355 179.932 23.2764C179.832 23.4178 179.76 23.5869 179.717 23.7838L178.532 23.5231C178.61 23.1676 178.766 22.8608 179.001 22.6028C179.236 22.342 179.527 22.1581 179.875 22.0511C180.223 21.9413 180.609 21.9331 181.033 22.0263C181.451 22.1184 181.789 22.2643 182.046 22.4642C182.306 22.662 182.482 22.9042 182.574 23.191C182.669 23.4757 182.678 23.793 182.601 24.143C182.558 24.3399 182.484 24.5258 182.379 24.7006C182.276 24.8727 182.144 25.0388 181.986 25.1989C181.831 25.3568 181.65 25.5121 181.445 25.6647C181.239 25.8173 181.014 25.9728 180.77 26.1312L179.476 27.0678L182.036 27.6308ZM182.803 28.1695C182.842 27.9945 182.934 27.8614 183.08 27.7703C183.229 27.6798 183.405 27.6568 183.607 27.7013C183.809 27.7458 183.958 27.8401 184.052 27.9841C184.149 28.1288 184.179 28.2886 184.14 28.4636C184.102 28.6386 184.008 28.7714 183.859 28.8619C183.713 28.953 183.539 28.9763 183.336 28.9318C183.134 28.8873 182.984 28.7927 182.887 28.648C182.793 28.504 182.765 28.3445 182.803 28.1695ZM189.682 27.9411L189.478 28.8681L185.175 27.9216L185.276 27.1912L188.635 23.789L189.574 23.9956L188.182 25.474L186.495 27.2401L189.682 27.9411ZM189.828 24.0515L188.514 30.0236L187.333 29.7637L188.647 23.7917L189.828 24.0515ZM192.448 24.2796L191.062 30.5839L189.88 30.3241L191.267 24.0198L192.448 24.2796ZM194.835 26.7613L192.424 28.5357L191.16 29.3542L190.917 28.4063L191.967 27.545L193.416 26.4491L194.835 26.7613ZM192.632 30.9295L191.771 28.5899L192.744 28.0558L193.994 31.2291L192.632 30.9295Z" fill="#192E53"/>
<rect x="161.663" y="1.8584" width="48.0214" height="48.0214" rx="1.35208" transform="rotate(12.407 161.663 1.8584)" stroke="#192E53" stroke-width="2.70417" stroke-linecap="round" stroke-linejoin="round"/>
<path d="M178.998 12.9127L179.474 13.0174L179.734 15.1732L180.874 13.3255L181.35 13.4301L179.765 15.9398L179.383 15.8558L178.998 12.9127ZM178.742 12.8563L179.215 12.9605L178.872 14.9306L178.702 15.7059L178.142 15.5827L178.742 12.8563ZM181.133 13.3823L181.608 13.487L181.009 16.2134L180.447 16.0898L180.617 15.3146L181.133 13.3823ZM182.101 13.5953L183.118 13.819C183.326 13.8649 183.498 13.9355 183.634 14.0308C183.772 14.1265 183.868 14.2444 183.922 14.3846C183.976 14.5248 183.984 14.6841 183.944 14.8626C183.912 15.0087 183.86 15.1287 183.787 15.2225C183.715 15.3154 183.627 15.387 183.521 15.4371C183.418 15.4863 183.301 15.5183 183.172 15.5331L182.974 15.5876L182.09 15.3931L182.183 14.9542L182.84 15.0987C182.939 15.1204 183.024 15.1209 183.097 15.1003C183.17 15.0796 183.229 15.0416 183.275 14.9863C183.323 14.9313 183.355 14.8627 183.373 14.7803C183.393 14.6929 183.393 14.6138 183.375 14.543C183.356 14.4722 183.318 14.4126 183.259 14.3644C183.2 14.3161 183.121 14.281 183.021 14.259L182.566 14.1589L182.063 16.4453L181.501 16.3217L182.101 13.5953ZM183.025 16.657L182.671 15.305L183.265 15.4318L183.632 16.763L183.626 16.7892L183.025 16.657ZM184.558 14.1358L185.574 14.3594C185.783 14.4053 185.955 14.4759 186.091 14.5713C186.229 14.6669 186.324 14.7849 186.379 14.925C186.433 15.0652 186.44 15.2246 186.401 15.4031C186.369 15.5491 186.316 15.6691 186.243 15.763C186.172 15.8559 186.083 15.9274 185.978 15.9775C185.874 16.0267 185.758 16.0587 185.629 16.0735L185.431 16.128L184.547 15.9336L184.64 15.4946L185.297 15.6392C185.395 15.6609 185.481 15.6614 185.554 15.6407C185.626 15.6201 185.686 15.5821 185.732 15.5268C185.779 15.4718 185.812 15.4031 185.83 15.3207C185.849 15.2333 185.85 15.1542 185.831 15.0834C185.813 15.0126 185.774 14.9531 185.716 14.9048C185.657 14.8566 185.577 14.8215 185.478 14.7995L185.023 14.6994L184.52 16.9857L183.958 16.8621L184.558 14.1358ZM185.482 17.1975L185.128 15.8454L185.722 15.9723L186.089 17.3035L186.083 17.3297L185.482 17.1975Z" fill="#192E53"/>
<path d="M169.066 43.4674L170.98 41.1027L171.725 44.0523L169.066 43.4674ZM174.337 42.9522L174.625 43.0157C174.718 43.036 174.797 43.0371 174.864 43.0191C174.931 42.9998 174.985 42.9647 175.026 42.9135C175.069 42.8615 175.099 42.7967 175.116 42.7193C175.132 42.6494 175.132 42.5846 175.116 42.5249C175.102 42.4642 175.071 42.4128 175.022 42.3708C174.974 42.3275 174.908 42.2966 174.825 42.2782C174.759 42.2637 174.694 42.2633 174.633 42.2772C174.571 42.2911 174.518 42.318 174.473 42.358C174.429 42.398 174.4 42.4518 174.385 42.5192L173.844 42.4001C173.877 42.2503 173.945 42.1287 174.05 42.0351C174.155 41.9419 174.283 41.879 174.433 41.8465C174.583 41.814 174.739 41.8158 174.903 41.8518C175.088 41.8924 175.243 41.9579 175.368 42.0483C175.494 42.1375 175.583 42.248 175.635 42.3799C175.687 42.5117 175.694 42.6626 175.657 42.8323C175.638 42.9185 175.6 42.9977 175.542 43.0701C175.484 43.1412 175.411 43.201 175.322 43.2494C175.234 43.2969 175.133 43.3283 175.018 43.3436C174.904 43.3577 174.781 43.3502 174.648 43.3211L174.274 43.2387L174.337 42.9522ZM174.247 43.3623L174.308 43.0833L174.682 43.1657C174.831 43.1984 174.958 43.2439 175.063 43.3024C175.168 43.3608 175.251 43.4302 175.313 43.5106C175.376 43.5898 175.417 43.6767 175.437 43.7713C175.457 43.8647 175.455 43.9632 175.432 44.0669C175.404 44.1942 175.355 44.3024 175.284 44.3916C175.214 44.4795 175.127 44.548 175.023 44.5972C174.921 44.6466 174.807 44.6765 174.682 44.6869C174.556 44.6961 174.425 44.6854 174.286 44.6549C174.171 44.6297 174.062 44.5892 173.957 44.5335C173.855 44.4769 173.765 44.4069 173.69 44.3235C173.615 44.239 173.562 44.1422 173.53 44.0331C173.499 43.9229 173.498 43.8004 173.528 43.6656L174.069 43.7847C174.054 43.8546 174.058 43.9208 174.08 43.9834C174.103 44.0461 174.142 44.0997 174.196 44.1444C174.252 44.1893 174.318 44.2201 174.394 44.2369C174.48 44.2558 174.557 44.2564 174.625 44.2387C174.695 44.22 174.752 44.1855 174.797 44.1352C174.844 44.0839 174.875 44.0196 174.892 43.9422C174.914 43.8423 174.914 43.7584 174.891 43.6906C174.868 43.6214 174.826 43.5651 174.765 43.5216C174.704 43.478 174.627 43.4461 174.535 43.4258L174.247 43.3623ZM175.741 44.6628C175.759 44.5829 175.801 44.5222 175.867 44.4806C175.935 44.4393 176.016 44.4288 176.108 44.4491C176.2 44.4694 176.268 44.5125 176.311 44.5782C176.356 44.6443 176.369 44.7172 176.351 44.7971C176.334 44.877 176.291 44.9376 176.223 44.9789C176.156 45.0205 176.077 45.0312 175.984 45.0109C175.892 44.9905 175.824 44.9474 175.779 44.8813C175.736 44.8156 175.723 44.7427 175.741 44.6628ZM177.528 44.0272L177.12 43.8295L177.579 42.4818L179.111 42.8187L179.015 43.255L177.927 43.0157L177.727 43.6057C177.768 43.5924 177.827 43.5821 177.906 43.5745C177.985 43.5658 178.071 43.5714 178.162 43.5915C178.294 43.6206 178.407 43.667 178.5 43.7307C178.593 43.7944 178.667 43.8734 178.721 43.9677C178.776 44.0623 178.81 44.1705 178.822 44.2923C178.835 44.4142 178.825 44.5469 178.794 44.6904C178.767 44.8115 178.723 44.9229 178.661 45.0245C178.6 45.1249 178.522 45.2097 178.426 45.2791C178.332 45.3473 178.221 45.393 178.096 45.4165C177.97 45.4399 177.829 45.4343 177.672 45.3997C177.554 45.3739 177.445 45.3314 177.342 45.2723C177.241 45.2134 177.155 45.1401 177.083 45.0522C177.012 44.9646 176.961 44.8663 176.93 44.7574C176.9 44.6475 176.898 44.5293 176.923 44.4027L177.459 44.5205C177.449 44.5995 177.454 44.6707 177.475 44.734C177.496 44.7963 177.531 44.8485 177.579 44.8906C177.628 44.9326 177.689 44.9618 177.762 44.978C177.831 44.9931 177.893 44.9929 177.947 44.9774C178.002 44.9618 178.049 44.9343 178.089 44.8947C178.129 44.8539 178.163 44.8037 178.191 44.7443C178.22 44.684 178.242 44.617 178.259 44.5433C178.275 44.4696 178.281 44.4009 178.276 44.3372C178.272 44.2734 178.257 44.2157 178.23 44.164C178.203 44.1124 178.165 44.0685 178.114 44.0324C178.064 43.9966 178.002 43.9706 177.929 43.9544C177.829 43.9325 177.748 43.931 177.686 43.9502C177.626 43.9696 177.573 43.9953 177.528 44.0272ZM179.853 44.1658L180.142 44.2292C180.234 44.2495 180.314 44.2507 180.38 44.2327C180.447 44.2134 180.502 44.1782 180.543 44.1271C180.586 44.075 180.616 44.0103 180.633 43.9329C180.648 43.863 180.648 43.7981 180.632 43.7384C180.618 43.6777 180.587 43.6264 180.539 43.5843C180.491 43.541 180.425 43.5102 180.341 43.4918C180.275 43.4772 180.211 43.4769 180.149 43.4907C180.087 43.5046 180.034 43.5315 179.99 43.5716C179.946 43.6116 179.916 43.6653 179.901 43.7327L179.36 43.6137C179.393 43.4639 179.462 43.3422 179.566 43.2487C179.672 43.1554 179.799 43.0925 179.949 43.0601C180.099 43.0276 180.256 43.0293 180.419 43.0653C180.604 43.1059 180.759 43.1715 180.884 43.2619C181.01 43.351 181.099 43.4615 181.151 43.5934C181.203 43.7253 181.211 43.8761 181.173 44.0459C181.154 44.132 181.116 44.2113 181.058 44.2836C181.001 44.3547 180.927 44.4145 180.838 44.4629C180.75 44.5104 180.649 44.5418 180.535 44.5572C180.42 44.5713 180.297 44.5638 180.165 44.5347L179.79 44.4523L179.853 44.1658ZM179.763 44.5759L179.824 44.2969L180.199 44.3792C180.347 44.4119 180.474 44.4575 180.579 44.5159C180.684 44.5743 180.768 44.6437 180.83 44.7242C180.892 44.8033 180.933 44.8902 180.953 44.9849C180.973 45.0783 180.972 45.1768 180.949 45.2804C180.921 45.4077 180.871 45.516 180.801 45.6051C180.73 45.693 180.643 45.7616 180.54 45.8107C180.437 45.8602 180.323 45.8901 180.198 45.9005C180.073 45.9096 179.941 45.8989 179.803 45.8685C179.688 45.8432 179.578 45.8027 179.474 45.7471C179.371 45.6905 179.282 45.6204 179.206 45.537C179.132 45.4526 179.078 45.3558 179.046 45.2466C179.015 45.1365 179.015 45.014 179.045 44.8791L179.586 44.9982C179.57 45.0681 179.574 45.1344 179.597 45.197C179.62 45.2596 179.658 45.3132 179.713 45.3579C179.768 45.4028 179.834 45.4337 179.91 45.4504C179.996 45.4694 180.073 45.47 180.141 45.4522C180.211 45.4335 180.268 45.399 180.313 45.3487C180.36 45.2975 180.392 45.2331 180.409 45.1557C180.431 45.0559 180.43 44.972 180.407 44.9041C180.385 44.835 180.343 44.7786 180.282 44.7351C180.22 44.6916 180.144 44.6596 180.051 44.6393L179.763 44.5759ZM181.597 44.0664L181.628 43.9222C181.651 43.8186 181.694 43.7293 181.758 43.6543C181.822 43.5793 181.903 43.5258 182.001 43.4939C182.1 43.4619 182.213 43.4599 182.34 43.4879C182.471 43.5168 182.575 43.5664 182.651 43.6368C182.729 43.7075 182.78 43.7901 182.805 43.8846C182.831 43.9793 182.833 44.0785 182.81 44.1821L182.778 44.3263C182.756 44.4274 182.713 44.5155 182.65 44.5905C182.587 44.6658 182.507 44.7194 182.408 44.7514C182.309 44.7833 182.196 44.7852 182.067 44.7569C181.937 44.7283 181.834 44.6787 181.756 44.608C181.68 44.5376 181.629 44.455 181.603 44.3602C181.577 44.2655 181.574 44.1675 181.597 44.0664ZM181.986 44.0009L181.954 44.1451C181.945 44.1888 181.944 44.2324 181.951 44.2759C181.96 44.3184 181.979 44.356 182.009 44.3887C182.04 44.4204 182.081 44.4418 182.132 44.4531C182.186 44.4649 182.232 44.4627 182.271 44.4464C182.31 44.4288 182.342 44.4025 182.367 44.3673C182.392 44.331 182.409 44.2909 182.419 44.2472L182.45 44.1031C182.461 44.0569 182.461 44.0125 182.452 43.97C182.445 43.9264 182.426 43.889 182.397 43.8576C182.368 43.8252 182.327 43.8031 182.274 43.7913C182.224 43.7803 182.179 43.7834 182.138 43.8007C182.098 43.8168 182.065 43.8428 182.038 43.8789C182.014 43.9141 181.996 43.9547 181.986 44.0009ZM182.563 45.8867L182.594 45.7425C182.617 45.6401 182.66 45.5515 182.724 45.4765C182.788 45.4017 182.87 45.3484 182.969 45.3164C183.069 45.2848 183.183 45.2831 183.312 45.3113C183.441 45.3399 183.544 45.3894 183.62 45.4598C183.697 45.5302 183.748 45.6128 183.774 45.7076C183.8 45.8023 183.802 45.9009 183.78 46.0033L183.748 46.1474C183.725 46.2498 183.682 46.3385 183.619 46.4135C183.556 46.4888 183.476 46.5424 183.377 46.5743C183.279 46.6063 183.165 46.6081 183.036 46.5799C182.907 46.5513 182.803 46.5017 182.726 46.431C182.648 46.3603 182.596 46.2775 182.568 46.1824C182.542 46.0876 182.54 45.9891 182.563 45.8867ZM182.954 45.8216L182.922 45.9658C182.912 46.0107 182.913 46.0554 182.924 46.0997C182.935 46.1441 182.956 46.1819 182.985 46.2133C183.016 46.245 183.056 46.2661 183.103 46.2765C183.163 46.2897 183.212 46.2881 183.251 46.2718C183.29 46.2555 183.32 46.2288 183.342 46.1916C183.364 46.1546 183.38 46.1137 183.39 46.0688L183.422 45.9246C183.432 45.8796 183.432 45.8359 183.423 45.7934C183.415 45.7496 183.395 45.712 183.366 45.6806C183.338 45.6482 183.297 45.6262 183.245 45.6147C183.192 45.6032 183.146 45.606 183.105 45.6233C183.067 45.6396 183.034 45.6658 183.008 45.7019C182.982 45.7368 182.964 45.7767 182.954 45.8216ZM183.688 44.2339L181.888 46.072L181.656 45.8757L183.456 44.0377L183.688 44.2339Z" fill="#02B875"/>
<path d="M163.959 33.2607L164.765 33.2445L166.656 32.6618L169.454 33.0714L171.486 33.3121L174.688 32.6172L176.107 33.4542L178.369 34.8386L180.483 33.2485L181.003 33.8003L184.063 34.4735L185.38 34.3261L187.754 33.6083C189.071 33.5852 190.06 34.199 190.06 34.199L191.951 35.812L195.04 34.8873" stroke="#2B9BD4" stroke-width="1.35208" stroke-linecap="round" stroke-linejoin="round"/>
<path d="M93.3674 54.3702L89.7181 54.5919L87.8481 53.1074C87.8481 53.1074 86.4865 52.284 85.3453 52.9208L83.3944 53.9106L82.7346 56.151L79.7452 56.9932L78.6107 55.2585L77.2952 56.8877L74.6706 56.7351L73.881 59.6596L70.7755 59.5203L68.4648 58.7645L64.9846 56.7215L63.6024 58.1168L62.9062 58.509L64.4732 64.07L93.7744 55.8142L93.3674 54.3702Z" fill="url(#paint2_linear_203_2438)"/>
<g style="mix-blend-mode:multiply">
<path d="M61.708 76.8037L107.491 63.9042L107.663 64.5165C107.967 65.5947 107.339 66.7149 106.261 67.0187L64.3827 78.8181C63.3045 79.1219 62.1843 78.4941 61.8805 77.416L61.708 76.8037Z" fill="url(#paint3_linear_203_2438)"/>
</g>
<path d="M66.1165 44.7397L66.2848 44.6922L66.5446 45.614L66.4764 45.6332C66.1718 45.719 65.9135 45.8409 65.7013 45.9987C65.4891 46.1565 65.3239 46.343 65.2056 46.558C65.0893 46.7695 65.0202 47.0053 64.9983 47.2653C64.979 47.5245 65.0104 47.7997 65.0925 48.0909L65.3658 49.0608C65.4245 49.2692 65.4965 49.4479 65.5817 49.5969C65.6689 49.7425 65.7663 49.8578 65.8738 49.9428C65.9834 50.0244 66.0991 50.0769 66.221 50.1002C66.3422 50.1209 66.4696 50.1124 66.6032 50.0748C66.7287 50.0394 66.8348 49.9807 66.9212 49.8986C67.0104 49.8158 67.0775 49.7162 67.1225 49.5997C67.1695 49.4797 67.1932 49.349 67.1937 49.2076C67.1961 49.0627 67.1752 48.9114 67.1307 48.7538C67.0863 48.5962 67.0253 48.4562 66.9475 48.3339C66.8725 48.2108 66.784 48.1118 66.6821 48.0367C66.5794 47.9589 66.4671 47.9083 66.3452 47.885C66.2233 47.8617 66.0955 47.8688 65.9619 47.9065C65.7803 47.9577 65.632 48.0456 65.5172 48.1702C65.4042 48.2915 65.3275 48.4284 65.2869 48.5812C65.2463 48.7339 65.2436 48.8832 65.2789 49.029L64.867 48.9028C64.8171 48.6948 64.8049 48.4877 64.8304 48.2815C64.8586 48.0746 64.9223 47.8808 65.0213 47.7C65.1222 47.5158 65.2603 47.3558 65.4354 47.22C65.6098 47.0814 65.8212 46.9771 66.0697 46.9071C66.3422 46.8303 66.596 46.8151 66.8311 46.8613C67.0689 46.9068 67.2828 47.0008 67.4729 47.1433C67.6631 47.2859 67.8264 47.4662 67.9628 47.6845C68.0993 47.9027 68.2055 48.1467 68.2816 48.4166C68.3614 48.6998 68.3888 48.9761 68.3638 49.2456C68.3414 49.5143 68.269 49.764 68.1465 49.9946C68.0267 50.2245 67.8609 50.424 67.649 50.5933C67.4372 50.7626 67.1816 50.8894 66.8824 50.9737C66.5725 51.061 66.2748 51.0844 65.9894 51.0437C65.7058 50.9995 65.4443 50.9002 65.2046 50.7457C64.965 50.5911 64.7558 50.3862 64.5772 50.1308C64.4012 49.8747 64.2658 49.5783 64.1709 49.2417L64.0444 48.7928C63.9119 48.3226 63.8589 47.8732 63.8852 47.4448C63.9135 47.0129 64.0169 46.6175 64.1955 46.2586C64.3734 45.897 64.6231 45.5858 64.9448 45.325C65.2664 45.0643 65.657 44.8691 66.1165 44.7397ZM69.4602 49.5596C69.412 49.3886 69.4305 49.2291 69.5157 49.0811C69.6035 48.9323 69.7463 48.8301 69.944 48.7744C70.1417 48.7187 70.3156 48.7317 70.4655 48.8135C70.6181 48.8945 70.7185 49.0205 70.7667 49.1915C70.8148 49.3625 70.795 49.5224 70.7071 49.6711C70.6219 49.8191 70.4805 49.921 70.2828 49.9767C70.0851 50.0324 69.9099 50.0198 69.7573 49.9387C69.6074 49.857 69.5083 49.7306 69.4602 49.5596ZM75.367 46.1433L75.6222 47.049L71.4182 48.2336L71.1644 47.548L72.5097 43.0032L73.4275 42.7446L72.9022 44.6879L72.2531 47.0207L75.367 46.1433ZM73.6759 42.6746L75.3201 48.5098L74.1658 48.835L72.5217 42.9998L73.6759 42.6746ZM77.7724 41.5074L79.4199 47.3546L78.2657 47.6798L76.9931 43.1632L75.7306 43.9947L75.4743 43.085L77.6482 41.5424L77.7724 41.5074ZM80.0625 42.4195L79.9756 42.1109C79.9131 41.8891 79.9044 41.6738 79.9494 41.465C79.9944 41.2563 80.0949 41.0708 80.2511 40.9085C80.4073 40.7463 80.6216 40.6268 80.8941 40.55C81.1747 40.4709 81.4239 40.4598 81.6418 40.5167C81.8623 40.5728 82.045 40.6785 82.1897 40.8338C82.337 40.9884 82.442 41.1766 82.5044 41.3983L82.5914 41.7069C82.6524 41.9233 82.6604 42.1359 82.6154 42.3447C82.573 42.5527 82.4738 42.7379 82.3176 42.9001C82.1615 43.0624 81.9458 43.1823 81.6706 43.2598C81.3927 43.3381 81.1435 43.3492 80.923 43.2931C80.7051 43.2362 80.5224 43.1305 80.3751 42.9759C80.2277 42.8214 80.1235 42.6359 80.0625 42.4195ZM80.7411 41.8952L80.828 42.2038C80.8544 42.2973 80.8969 42.3819 80.9558 42.4576C81.0165 42.5299 81.0918 42.5822 81.1817 42.6146C81.2735 42.6435 81.3741 42.6425 81.4837 42.6117C81.5986 42.5793 81.6849 42.5276 81.7428 42.4565C81.7998 42.3827 81.8341 42.2995 81.8455 42.2069C81.8561 42.1116 81.8483 42.0172 81.8219 41.9237L81.735 41.6151C81.7071 41.5163 81.6628 41.4307 81.6021 41.3584C81.5433 41.2827 81.4693 41.23 81.3802 41.2003C81.293 41.1672 81.1919 41.1668 81.077 41.1992C80.9702 41.2293 80.8869 41.2816 80.8271 41.3562C80.7666 41.428 80.7297 41.5119 80.7164 41.608C80.705 41.7006 80.7132 41.7963 80.7411 41.8952ZM83.7767 44.9158L83.6898 44.6072C83.628 44.3881 83.6197 44.1742 83.6647 43.9654C83.7123 43.7559 83.8142 43.57 83.9704 43.4078C84.1292 43.2448 84.3462 43.1245 84.6214 43.047C84.8993 42.9687 85.1472 42.9579 85.3651 43.0148C85.583 43.0716 85.7656 43.1774 85.913 43.3319C86.0604 43.4865 86.1649 43.6734 86.2266 43.8924L86.3136 44.201C86.3753 44.4201 86.3837 44.6341 86.3387 44.8428C86.2964 45.0509 86.1971 45.236 86.041 45.3982C85.8848 45.5605 85.6691 45.6804 85.3939 45.7579C85.1161 45.8362 84.8668 45.8473 84.6463 45.7912C84.4257 45.7351 84.2404 45.6302 84.0904 45.4763C83.943 45.3217 83.8384 45.1349 83.7767 44.9158ZM84.4592 44.3904L84.5462 44.699C84.5733 44.7952 84.6203 44.88 84.6871 44.9535C84.7539 45.0269 84.8319 45.0785 84.921 45.1082C85.0128 45.1371 85.1095 45.1373 85.211 45.1087C85.3392 45.0725 85.4323 45.0189 85.4901 44.9478C85.548 44.8767 85.5782 44.7947 85.5808 44.7017C85.5861 44.6079 85.5752 44.5129 85.5481 44.4167L85.4612 44.1081C85.4341 44.0119 85.3901 43.9277 85.3294 43.8554C85.2679 43.7805 85.1926 43.7281 85.1035 43.6984C85.0163 43.6653 84.9166 43.6646 84.8044 43.6962C84.6922 43.7278 84.6062 43.7809 84.5464 43.8554C84.4886 43.9265 84.453 44.0101 84.4397 44.1061C84.4256 44.1995 84.4321 44.2942 84.4592 44.3904ZM84.2386 40.5982L82.6742 45.9619L82.0296 45.8234L83.594 40.4598L84.2386 40.5982Z" fill="#192E53"/>
<rect x="47.0566" y="35.123" width="47.6095" height="47.6095" rx="1.35208" transform="rotate(-15.7355 47.0566 35.123)" stroke="#192E53" stroke-width="2.70417" stroke-linecap="round" stroke-linejoin="round"/>
<path d="M58.3366 40.8632L58.8837 40.7091C58.9232 40.8915 58.9186 41.0646 58.87 41.2284C58.8226 41.3918 58.7318 41.5346 58.5977 41.6566C58.4648 41.7783 58.2891 41.8699 58.0708 41.9315C57.9 41.9796 57.7387 41.9934 57.5868 41.973C57.4346 41.9514 57.2947 41.8987 57.167 41.8148C57.0406 41.7306 56.9302 41.6169 56.8359 41.4737C56.7416 41.3304 56.6669 41.1612 56.6119 40.966L56.5598 40.7812C56.5048 40.5861 56.4808 40.4026 56.4877 40.2308C56.4955 40.0575 56.5319 39.9018 56.597 39.7636C56.6633 39.6251 56.7557 39.5069 56.8743 39.409C56.9928 39.3111 57.1356 39.2386 57.3027 39.1915C57.5247 39.129 57.7233 39.1164 57.8985 39.154C58.0748 39.1912 58.225 39.2687 58.3491 39.3865C58.4743 39.5039 58.5709 39.6505 58.6388 39.8262L58.09 39.9808C58.0536 39.8752 58.0067 39.7903 57.9491 39.7263C57.8912 39.6609 57.8197 39.6199 57.7347 39.603C57.6505 39.5846 57.5474 39.5926 57.4254 39.6269C57.334 39.6527 57.2589 39.6923 57.2002 39.7457C57.1415 39.7991 57.0988 39.8671 57.072 39.9497C57.0453 40.0323 57.0352 40.1299 57.042 40.2425C57.0496 40.3536 57.0733 40.4799 57.1132 40.6214L57.1663 40.8098C57.2051 40.9477 57.2497 41.0661 57.3 41.1652C57.3499 41.263 57.4064 41.3419 57.4693 41.4018C57.5332 41.4602 57.6044 41.4981 57.683 41.5154C57.7625 41.5312 57.851 41.5253 57.9486 41.4978C58.0633 41.4655 58.1527 41.4206 58.2168 41.363C58.2808 41.3055 58.3223 41.2352 58.341 41.1523C58.361 41.069 58.3595 40.9726 58.3366 40.8632ZM59.1028 40.5545L59.0919 40.5161C59.051 40.3709 59.0341 40.2315 59.0412 40.0979C59.048 39.963 59.0783 39.8393 59.1322 39.7267C59.186 39.6141 59.2638 39.5164 59.3656 39.4338C59.4671 39.3499 59.5928 39.2868 59.7428 39.2446C59.8928 39.2023 60.0336 39.1903 60.1652 39.2085C60.2963 39.2255 60.4143 39.268 60.519 39.3359C60.6249 39.4035 60.716 39.493 60.7922 39.6045C60.868 39.7148 60.9264 39.8425 60.9673 39.9877L60.9781 40.0261C61.0187 40.17 61.0356 40.3095 61.0288 40.4443C61.0217 40.578 60.9908 40.7019 60.9361 40.8161C60.8822 40.9287 60.8044 41.0263 60.7026 41.1089C60.6008 41.1916 60.4749 41.2541 60.3249 41.2963C60.1749 41.3386 60.0342 41.3512 59.9031 41.3342C59.7731 41.3169 59.6551 41.2744 59.5492 41.2068C59.4442 41.1377 59.3537 41.048 59.2779 40.9377C59.2017 40.8262 59.1433 40.6984 59.1028 40.5545ZM59.6189 40.3676L59.6297 40.4061C59.6531 40.489 59.6822 40.5644 59.7171 40.6322C59.752 40.7001 59.7931 40.757 59.8402 40.8029C59.8883 40.8473 59.9429 40.8774 60.0039 40.8931C60.0649 40.9088 60.1333 40.906 60.2089 40.8847C60.2821 40.8641 60.3406 40.8311 60.3845 40.7858C60.4283 40.7406 60.4585 40.6866 60.4751 40.624C60.4914 40.5602 60.4967 40.4903 60.491 40.4142C60.4866 40.3377 60.4727 40.258 60.4494 40.1751L60.4385 40.1367C60.4158 40.0562 60.3866 39.9828 60.3508 39.9165C60.3159 39.8487 60.2742 39.7919 60.2258 39.7463C60.1783 39.6992 60.1239 39.6671 60.0625 39.6502C60.0011 39.6332 59.9332 39.6353 59.8588 39.6562C59.7844 39.6772 59.7254 39.7109 59.6819 39.7574C59.6396 39.8035 59.6099 39.8593 59.5928 39.9247C59.5766 39.9885 59.5713 40.0585 59.5769 40.1346C59.5822 40.2094 59.5962 40.2871 59.6189 40.3676ZM61.6524 39.2022L62.0911 40.7592L61.5642 40.9077L61.0064 38.928L61.5004 38.7888L61.6524 39.2022ZM61.7158 39.7215L61.5731 39.7617C61.5318 39.6153 61.5136 39.4783 61.5185 39.3505C61.5229 39.2216 61.5476 39.106 61.5926 39.0038C61.6372 38.9004 61.7002 38.8135 61.7818 38.7431C61.8642 38.6712 61.964 38.6187 62.0811 38.5857C62.1738 38.5596 62.2623 38.5491 62.3467 38.5543C62.4311 38.5595 62.509 38.5836 62.5804 38.6267C62.653 38.6695 62.7175 38.7349 62.7739 38.823C62.8316 38.9108 62.88 39.0242 62.9192 39.1632L63.2749 40.4257L62.7443 40.5752L62.3881 39.3109C62.3633 39.2231 62.3319 39.1582 62.2937 39.1163C62.2556 39.0744 62.21 39.0504 62.1569 39.0442C62.1047 39.0366 62.0445 39.0424 61.9762 39.0616C61.9054 39.0815 61.8478 39.1129 61.8032 39.1557C61.7599 39.1982 61.7282 39.2493 61.7082 39.3089C61.689 39.367 61.6801 39.4314 61.6816 39.502C61.6831 39.5727 61.6945 39.6459 61.7158 39.7215ZM64.2406 39.7388L64.2302 38.0197L64.7809 37.8645L64.6709 40.0323L64.3379 40.1261L64.2406 39.7388ZM63.4892 38.2285L64.3802 39.7015L64.4971 40.0813L64.1622 40.1756L62.9366 38.3842L63.4892 38.2285ZM66.4705 39.5647C66.3168 39.608 66.1721 39.6225 66.0364 39.6081C65.9004 39.5924 65.7773 39.5527 65.6671 39.489C65.5582 39.4249 65.4649 39.3412 65.3871 39.2381C65.309 39.1337 65.2514 39.0156 65.2142 38.8839L65.1936 38.8107C65.1514 38.6607 65.134 38.5174 65.1417 38.381C65.1493 38.2446 65.1799 38.1194 65.2334 38.0056C65.2881 37.8914 65.3659 37.7938 65.4668 37.7127C65.5674 37.6304 65.6897 37.569 65.8336 37.5284C65.9739 37.4889 66.1048 37.477 66.2264 37.4928C66.348 37.5085 66.4575 37.5488 66.5547 37.6136C66.6532 37.678 66.7381 37.7646 66.8096 37.8735C66.8808 37.9812 66.9368 38.1076 66.9777 38.2527L67.0396 38.4723L65.4661 38.9156L65.3671 38.5643L66.4228 38.2669L66.4115 38.2266C66.3908 38.1535 66.359 38.092 66.316 38.0422C66.2739 37.9909 66.2218 37.9555 66.1598 37.9362C66.0977 37.9168 66.0258 37.9186 65.9441 37.9416C65.8746 37.9612 65.8191 37.9933 65.7777 38.0379C65.7363 38.0825 65.7074 38.1367 65.6912 38.2005C65.6761 38.264 65.6712 38.3352 65.6763 38.414C65.6823 38.4913 65.6976 38.5739 65.7224 38.6617L65.743 38.7349C65.7653 38.8142 65.7969 38.8843 65.8378 38.9452C65.8799 39.0057 65.9285 39.0546 65.9837 39.0917C66.0402 39.1284 66.1021 39.1518 66.1694 39.1618C66.2379 39.1715 66.3106 39.1655 66.3875 39.1438C66.4826 39.117 66.5659 39.0738 66.6373 39.0142C66.7096 38.953 66.765 38.8762 66.8034 38.7837L67.1379 38.9896C67.1133 39.0611 67.0727 39.1344 67.0162 39.2096C66.961 39.2844 66.8883 39.3536 66.7982 39.4171C66.7078 39.4795 66.5986 39.5287 66.4705 39.5647ZM67.6634 37.5184L68.0995 39.0663L67.5726 39.2147L67.0148 37.2351L67.5107 37.0954L67.6634 37.5184ZM68.1346 36.9058L68.2631 37.3968C68.2365 37.4004 68.2045 37.4061 68.1672 37.414C68.1308 37.4203 68.098 37.4276 68.0687 37.4358C67.9943 37.4568 67.9324 37.4848 67.883 37.5197C67.8345 37.5532 67.7971 37.5933 67.7708 37.6402C67.7458 37.6868 67.7315 37.7389 67.7279 37.7965C67.7256 37.8537 67.7327 37.9162 67.7492 37.984L67.6338 37.981C67.5977 37.8529 67.5774 37.7316 67.5727 37.617C67.5678 37.5013 67.5783 37.3962 67.6044 37.302C67.6318 37.2074 67.6752 37.128 67.7348 37.0638C67.7944 36.9996 67.8705 36.9545 67.9632 36.9284C67.9925 36.9201 68.0231 36.9141 68.055 36.9104C68.0865 36.9055 68.113 36.9039 68.1346 36.9058ZM69.861 37.9795C69.8504 37.9417 69.8298 37.9106 69.7992 37.8863C69.7687 37.862 69.7199 37.8454 69.6529 37.8367C69.5868 37.8263 69.4952 37.8258 69.378 37.8351C69.2718 37.8414 69.1707 37.8402 69.0748 37.8317C68.9798 37.8216 68.8939 37.8017 68.8171 37.772C68.7415 37.7419 68.6769 37.6996 68.6233 37.6449C68.5694 37.589 68.5305 37.519 68.5068 37.4348C68.4835 37.3519 68.4792 37.2688 68.4939 37.1857C68.5099 37.1022 68.5435 37.0229 68.5948 36.9479C68.6469 36.8713 68.7173 36.8034 68.806 36.7442C68.8955 36.6835 69.0019 36.6357 69.125 36.601C69.297 36.5526 69.4523 36.5384 69.591 36.5586C69.7309 36.5784 69.8473 36.6272 69.9403 36.705C70.0342 36.7813 70.0984 36.8804 70.1327 37.0024L69.6058 37.1508C69.5914 37.0996 69.5675 37.057 69.5342 37.0229C69.5018 36.9873 69.4598 36.9642 69.4081 36.9538C69.3573 36.9417 69.2965 36.9457 69.2258 36.9656C69.1673 36.9821 69.1196 37.0068 69.0827 37.0395C69.0455 37.0711 69.0201 37.1072 69.0066 37.1479C68.9939 37.187 68.9932 37.2267 69.0046 37.2669C69.0132 37.2974 69.027 37.3231 69.0461 37.3441C69.066 37.3635 69.0934 37.3788 69.1282 37.3901C69.1629 37.4014 69.2059 37.409 69.2571 37.413C69.3091 37.4155 69.3718 37.4136 69.4451 37.4074C69.596 37.3965 69.7343 37.399 69.8599 37.415C69.9852 37.4297 70.0921 37.468 70.1807 37.53C70.2689 37.5907 70.3312 37.6857 70.3676 37.815C70.3924 37.9028 70.3955 37.9888 70.3771 38.073C70.3587 38.1572 70.3207 38.237 70.2629 38.3125C70.2049 38.3868 70.1289 38.4537 70.035 38.513C69.9421 38.5708 69.8321 38.6176 69.7053 38.6533C69.5211 38.7052 69.3557 38.7163 69.2091 38.6865C69.0636 38.6564 68.9437 38.6 68.8494 38.5173C68.7558 38.433 68.694 38.3373 68.6637 38.2299L69.1632 38.0892C69.1859 38.1605 69.2205 38.2132 69.2671 38.2475C69.3148 38.2815 69.3683 38.3006 69.4274 38.305C69.4878 38.3091 69.5497 38.3022 69.6132 38.2843C69.6815 38.2651 69.7356 38.2399 69.7756 38.2089C69.8152 38.1767 69.8421 38.1415 69.8564 38.1032C69.8715 38.0634 69.873 38.0222 69.861 37.9795ZM70.868 36.1494L71.4258 38.1291L70.897 38.278L70.3392 36.2984L70.868 36.1494ZM70.1609 35.7917C70.1393 35.7149 70.1482 35.6439 70.1878 35.5788C70.2274 35.5136 70.2923 35.4684 70.3826 35.4429C70.4716 35.4178 70.55 35.4227 70.6178 35.4576C70.6868 35.4922 70.7321 35.5479 70.7537 35.6247C70.7754 35.7016 70.7658 35.7727 70.725 35.8382C70.6854 35.9033 70.6211 35.9484 70.5321 35.9735C70.4418 35.9989 70.3628 35.9942 70.295 35.9593C70.2273 35.9244 70.1826 35.8686 70.1609 35.7917ZM71.5038 37.0604L71.493 37.022C71.4521 36.8768 71.4352 36.7374 71.4423 36.6038C71.4491 36.4689 71.4794 36.3451 71.5332 36.2325C71.5871 36.1199 71.6649 36.0223 71.7667 35.9397C71.8681 35.8558 71.9939 35.7927 72.1439 35.7504C72.2939 35.7082 72.4347 35.6961 72.5662 35.7144C72.6974 35.7314 72.8154 35.7739 72.9201 35.8418C73.026 35.9094 73.1171 35.9989 73.1933 36.1104C73.2691 36.2207 73.3275 36.3484 73.3684 36.4936L73.3792 36.532C73.4197 36.6759 73.4366 36.8153 73.4299 36.9502C73.4228 37.0839 73.3919 37.2078 73.3371 37.3219C73.2833 37.4345 73.2055 37.5322 73.1037 37.6148C73.0019 37.6975 72.876 37.7599 72.726 37.8022C72.5759 37.8445 72.4353 37.8571 72.3041 37.8401C72.1742 37.8227 72.0562 37.7803 71.9503 37.7127C71.8452 37.6435 71.7548 37.5538 71.6789 37.4435C71.6028 37.332 71.5444 37.2043 71.5038 37.0604ZM72.0199 36.8735L72.0308 36.9119C72.0541 36.9949 72.0833 37.0703 72.1182 37.1381C72.1531 37.2059 72.1942 37.2628 72.2413 37.3088C72.2894 37.3532 72.3439 37.3832 72.405 37.3989C72.466 37.4147 72.5343 37.4119 72.61 37.3906C72.6832 37.3699 72.7417 37.337 72.7855 37.2917C72.8294 37.2464 72.8596 37.1925 72.8762 37.1299C72.8925 37.0661 72.8978 36.9961 72.8921 36.92C72.8877 36.8436 72.8738 36.7639 72.8504 36.681L72.8396 36.6426C72.8169 36.562 72.7877 36.4887 72.7519 36.4224C72.717 36.3545 72.6753 36.2978 72.6269 36.2522C72.5794 36.205 72.525 36.173 72.4636 36.156C72.4022 36.1391 72.3343 36.1411 72.2599 36.1621C72.1855 36.1831 72.1265 36.2168 72.083 36.2633C72.0407 36.3094 72.011 36.3652 71.9939 36.4306C71.9776 36.4944 71.9723 36.5644 71.978 36.6404C71.9833 36.7153 71.9973 36.793 72.0199 36.8735ZM74.0535 35.7081L74.4922 37.2651L73.9653 37.4135L73.4075 35.4339L73.9015 35.2947L74.0535 35.7081ZM74.1169 36.2274L73.9742 36.2676C73.9329 36.1212 73.9147 35.9842 73.9195 35.8564C73.924 35.7274 73.9487 35.6119 73.9936 35.5097C74.0382 35.4063 74.1013 35.3194 74.1829 35.249C74.2653 35.1771 74.365 35.1246 74.4821 35.0916C74.5748 35.0655 74.6634 35.055 74.7478 35.0602C74.8322 35.0654 74.9101 35.0895 74.9815 35.1326C75.0541 35.1753 75.1186 35.2408 75.175 35.3289C75.2327 35.4166 75.2811 35.53 75.3203 35.6691L75.676 36.9315L75.1454 37.081L74.7891 35.8168C74.7644 35.7289 74.733 35.6641 74.6948 35.6222C74.6567 35.5802 74.6111 35.5562 74.558 35.5501C74.5058 35.5424 74.4456 35.5482 74.3773 35.5675C74.3065 35.5874 74.2489 35.6188 74.2043 35.6616C74.161 35.7041 74.1293 35.7552 74.1092 35.8148C74.0901 35.8729 74.0812 35.9372 74.0827 36.0079C74.0842 36.0786 74.0956 36.1517 74.1169 36.2274ZM76.2921 33.8825L77.2856 33.6026C77.4893 33.5452 77.6729 33.5264 77.8364 33.5461C78.0012 33.5655 78.1401 33.6238 78.253 33.721C78.366 33.8182 78.4471 33.954 78.4962 34.1285C78.5364 34.2712 78.5466 34.4006 78.5266 34.5168C78.5076 34.6315 78.4638 34.7353 78.3952 34.8284C78.3275 34.9199 78.2408 35.0022 78.135 35.0755L77.987 35.2159L77.1234 35.4592L76.9991 35.0321L77.6413 34.8512C77.7377 34.8241 77.8128 34.7845 77.8666 34.7324C77.9204 34.6804 77.9545 34.6194 77.9691 34.5495C77.9848 34.4793 77.9813 34.4039 77.9587 34.3234C77.9346 34.238 77.898 34.1687 77.8487 34.1154C77.7995 34.0621 77.7379 34.0281 77.664 34.0134C77.59 33.9987 77.5043 34.0051 77.4067 34.0326L76.9621 34.1578L77.5916 36.3918L77.0427 36.5464L76.2921 33.8825ZM78.532 36.1268L77.59 35.1106L78.1689 34.9435L79.1121 35.9357L79.1193 35.9613L78.532 36.1268ZM80.3529 35.1319L80.1044 34.25C80.0865 34.1866 80.0609 34.1352 80.0274 34.0959C79.9936 34.0554 79.9512 34.0286 79.9 34.0153C79.8501 34.0017 79.791 34.0046 79.7227 34.0238C79.6642 34.0403 79.6165 34.0649 79.5796 34.0977C79.5424 34.1292 79.5176 34.1672 79.5051 34.2115C79.4922 34.2547 79.4928 34.3012 79.5069 34.3512L78.98 34.4997C78.9563 34.4155 78.9533 34.3301 78.971 34.2435C78.9887 34.1569 79.0267 34.0744 79.085 33.9962C79.1429 33.9166 79.2184 33.846 79.3116 33.7842C79.406 33.722 79.5172 33.6729 79.6453 33.6368C79.799 33.5935 79.9428 33.5807 80.0768 33.5982C80.2107 33.6158 80.3263 33.6661 80.4235 33.7493C80.5219 33.8322 80.5927 33.9505 80.636 34.1042L80.8747 34.9513C80.9053 35.0598 80.9371 35.147 80.9701 35.2127C81.0028 35.2773 81.0391 35.3315 81.0792 35.3755L81.0879 35.4066L80.5555 35.5567C80.5148 35.5102 80.4764 35.4486 80.4403 35.3719C80.405 35.2936 80.3759 35.2136 80.3529 35.1319ZM80.2085 34.353L80.2962 34.6502L80.0016 34.7332C79.9321 34.7528 79.8739 34.7777 79.8272 34.808C79.7804 34.8383 79.7447 34.8727 79.72 34.9113C79.695 34.9486 79.6799 34.9884 79.6747 35.0307C79.6707 35.0726 79.675 35.1162 79.6878 35.1613C79.7005 35.2064 79.7223 35.2444 79.7534 35.2751C79.7841 35.3047 79.8219 35.3243 79.8668 35.334C79.9113 35.3425 79.9598 35.3394 80.0122 35.3246C80.0915 35.3023 80.156 35.267 80.2056 35.2188C80.2552 35.1706 80.2893 35.1189 80.308 35.0636C80.3278 35.0079 80.3325 34.9592 80.3221 34.9174L80.524 35.1014C80.5186 35.157 80.5064 35.2164 80.4873 35.2796C80.4695 35.3426 80.4417 35.4051 80.4039 35.4671C80.3657 35.5279 80.3149 35.5836 80.2516 35.6344C80.1879 35.684 80.1066 35.7226 80.0078 35.7505C79.8822 35.7859 79.7611 35.793 79.6445 35.7719C79.5289 35.7492 79.4286 35.7017 79.3437 35.6295C79.2598 35.5557 79.2016 35.4615 79.1693 35.3469C79.1401 35.2432 79.1337 35.1456 79.15 35.0541C79.1664 34.9626 79.2046 34.8788 79.2648 34.8026C79.3258 34.7248 79.4097 34.6558 79.5164 34.5954C79.6229 34.5338 79.7517 34.4817 79.9029 34.4391L80.2085 34.353ZM81.8273 33.0615L81.9325 33.4348L80.7799 33.7595L80.6747 33.3863L81.8273 33.0615ZM80.8225 32.8174L81.3494 32.6689L81.8768 34.5406C81.8929 34.5979 81.9126 34.6398 81.9358 34.6661C81.9603 34.6922 81.9895 34.707 82.0234 34.7106C82.057 34.713 82.097 34.7076 82.1433 34.6946C82.1762 34.6853 82.2052 34.6758 82.2301 34.6662C82.2559 34.6549 82.2774 34.6449 82.2947 34.6361L82.4058 35.0235C82.3648 35.0508 82.3193 35.0762 82.2692 35.0995C82.2192 35.1228 82.1625 35.1434 82.099 35.1613C81.9832 35.1939 81.8766 35.2035 81.7793 35.1901C81.683 35.1751 81.5996 35.1315 81.5292 35.0592C81.4588 34.9868 81.404 34.8812 81.3648 34.7421L80.8225 32.8174ZM83.6066 34.7365C83.4529 34.7798 83.3082 34.7942 83.1725 34.7798C83.0365 34.7642 82.9134 34.7245 82.8032 34.6607C82.6943 34.5966 82.601 34.5129 82.5232 34.4098C82.4451 34.3054 82.3875 34.1874 82.3503 34.0556L82.3297 33.9824C82.2875 33.8324 82.2701 33.6892 82.2778 33.5527C82.2854 33.4163 82.316 33.2912 82.3695 33.1773C82.4242 33.0632 82.502 32.9655 82.6029 32.8845C82.7035 32.8021 82.8258 32.7407 82.9697 32.7002C83.11 32.6606 83.2409 32.6488 83.3625 32.6645C83.4841 32.6803 83.5936 32.7205 83.6908 32.7853C83.7893 32.8497 83.8742 32.9364 83.9457 33.0452C84.0169 33.1529 84.0729 33.2793 84.1138 33.4245L84.1757 33.644L82.6022 34.0874L82.5032 33.7361L83.5589 33.4386L83.5476 33.3984C83.5269 33.3252 83.4951 33.2637 83.4521 33.2139C83.41 33.1626 83.3579 33.1273 83.2959 33.1079C83.2338 33.0885 83.1619 33.0903 83.0802 33.1134C83.0107 33.133 82.9552 33.165 82.9138 33.2096C82.8724 33.2542 82.8435 33.3084 82.8273 33.3722C82.8122 33.4357 82.8073 33.5069 82.8124 33.5858C82.8184 33.6631 82.8337 33.7456 82.8585 33.8335L82.8791 33.9066C82.9014 33.9859 82.933 34.056 82.9739 34.1169C83.016 34.1775 83.0646 34.2263 83.1198 34.2634C83.1763 34.3002 83.2382 34.3235 83.3055 34.3335C83.374 34.3432 83.4467 34.3372 83.5236 34.3155C83.6187 34.2887 83.702 34.2455 83.7734 34.1859C83.8457 34.1247 83.9011 34.0479 83.9395 33.9554L84.274 34.1614C84.2494 34.2328 84.2088 34.3061 84.1523 34.3813C84.0971 34.4561 84.0244 34.5253 83.9343 34.5888C83.8439 34.6512 83.7347 34.7004 83.6066 34.7365Z" fill="#192E53"/>
<path d="M73.7618 64.6479L73.1943 67.6102L71.1638 65.38L73.7618 64.6479ZM77.4977 64.6459L77.6276 65.107C77.6839 65.307 77.7112 65.4856 77.7094 65.6428C77.7073 65.7988 77.679 65.9344 77.6246 66.0498C77.5711 66.1636 77.4957 66.258 77.3983 66.3328C77.3009 66.4077 77.1851 66.464 77.0509 66.5018C76.9436 66.532 76.8398 66.5468 76.7395 66.5461C76.6389 66.5441 76.5432 66.5244 76.4523 66.4868C76.3626 66.4489 76.2784 66.393 76.1996 66.319C76.1217 66.2436 76.0512 66.1476 75.9881 66.031C75.925 65.9145 75.8708 65.7758 75.8254 65.6148L75.6955 65.1537C75.6391 64.9537 75.6122 64.7763 75.6147 64.6216C75.618 64.4653 75.6465 64.3302 75.7 64.2164C75.7547 64.1022 75.8309 64.0083 75.9287 63.9347C76.0261 63.8599 76.1419 63.8035 76.2761 63.7657C76.3834 63.7355 76.4868 63.7215 76.5861 63.7238C76.6864 63.7245 76.7818 63.743 76.8724 63.7794C76.9629 63.8158 77.0471 63.8717 77.125 63.9472C77.2026 64.0214 77.2729 64.1168 77.336 64.2333C77.3988 64.3486 77.4526 64.4862 77.4977 64.6459ZM77.1184 65.3255L76.9488 64.7236C76.9217 64.6272 76.8925 64.5446 76.8612 64.4757C76.8312 64.4065 76.7987 64.3498 76.7639 64.3056C76.7287 64.2603 76.6914 64.226 76.652 64.2029C76.6126 64.1798 76.5713 64.1664 76.5281 64.1627C76.485 64.1591 76.4396 64.164 76.392 64.1774C76.3323 64.1942 76.2825 64.2208 76.2427 64.257C76.2041 64.2929 76.1761 64.3409 76.1588 64.4011C76.1412 64.46 76.1357 64.534 76.1424 64.623C76.1499 64.7104 76.1705 64.8138 76.2042 64.9334L76.3738 65.5353C76.4009 65.6317 76.4297 65.7151 76.4601 65.7855C76.4916 65.8556 76.5252 65.9139 76.5607 65.9606C76.5971 66.0056 76.6346 66.0405 76.6731 66.0651C76.7126 66.0883 76.7539 66.1016 76.797 66.1053C76.8414 66.1086 76.8874 66.1035 76.9349 66.0901C76.9935 66.0736 77.042 66.0474 77.0806 66.0115C77.1201 65.9741 77.1485 65.9253 77.1658 65.8651C77.1839 65.8034 77.1891 65.7282 77.1812 65.6396C77.1734 65.551 77.1524 65.4463 77.1184 65.3255ZM78.2735 65.8433C78.2515 65.7653 78.2599 65.6924 78.2988 65.6249C78.3389 65.557 78.4041 65.5103 78.4944 65.4849C78.5846 65.4594 78.664 65.4654 78.7324 65.5027C78.8021 65.5397 78.8479 65.5972 78.8699 65.6753C78.8919 65.7533 78.8829 65.8263 78.8427 65.8942C78.8039 65.9618 78.7393 66.0083 78.649 66.0337C78.5588 66.0592 78.4788 66.0534 78.4091 66.0164C78.3407 65.9791 78.2955 65.9214 78.2735 65.8433ZM80.4432 62.6311L80.5231 62.9147L80.1637 65.5852L79.6075 65.7419L80.003 63.1995L78.6766 63.5732L78.5606 63.1615L80.4432 62.6311ZM82.137 62.1242L82.2139 62.1026L82.3324 62.5234L82.3013 62.5321C82.1623 62.5713 82.0443 62.6269 81.9475 62.699C81.8506 62.771 81.7752 62.8562 81.7212 62.9543C81.6681 63.0509 81.6365 63.1585 81.6265 63.2772C81.6177 63.3955 81.6321 63.5212 81.6695 63.6541L81.7943 64.0969C81.8211 64.192 81.854 64.2736 81.8929 64.3416C81.9327 64.4081 81.9771 64.4608 82.0263 64.4996C82.0762 64.5368 82.1291 64.5608 82.1847 64.5714C82.2401 64.5809 82.2982 64.577 82.3592 64.5598C82.4165 64.5437 82.4649 64.5169 82.5044 64.4794C82.5451 64.4416 82.5757 64.3961 82.5963 64.3429C82.6177 64.2882 82.6286 64.2285 82.6288 64.1639C82.6299 64.0978 82.6203 64.0287 82.6001 63.9568C82.5798 63.8848 82.5519 63.8209 82.5164 63.7651C82.4822 63.7089 82.4418 63.6637 82.3952 63.6294C82.3484 63.5939 82.2971 63.5708 82.2414 63.5601C82.1858 63.5495 82.1275 63.5528 82.0665 63.5699C81.9835 63.5933 81.9158 63.6334 81.8634 63.6903C81.8119 63.7457 81.7768 63.8082 81.7583 63.878C81.7398 63.9477 81.7385 64.0158 81.7547 64.0824L81.5666 64.0248C81.5438 63.9298 81.5382 63.8353 81.5499 63.7412C81.5628 63.6467 81.5918 63.5582 81.637 63.4757C81.6831 63.3916 81.7461 63.3185 81.8261 63.2565C81.9057 63.1933 82.0022 63.1457 82.1157 63.1137C82.2401 63.0787 82.3559 63.0717 82.4633 63.0928C82.5718 63.1136 82.6695 63.1565 82.7563 63.2215C82.8431 63.2866 82.9176 63.369 82.9799 63.4686C83.0422 63.5682 83.0907 63.6796 83.1254 63.8028C83.1619 63.9321 83.1744 64.0583 83.163 64.1813C83.1528 64.304 83.1197 64.4179 83.0638 64.5232C83.0091 64.6282 82.9334 64.7193 82.8367 64.7965C82.74 64.8738 82.6233 64.9317 82.4867 64.9702C82.3452 65.0101 82.2093 65.0207 82.079 65.0021C81.9495 64.982 81.8301 64.9366 81.7207 64.8661C81.6113 64.7955 81.5158 64.702 81.4343 64.5854C81.3539 64.4685 81.2921 64.3332 81.2488 64.1795L81.1911 63.9746C81.1306 63.7599 81.1064 63.5548 81.1184 63.3592C81.1313 63.162 81.1785 62.9815 81.2601 62.8176C81.3413 62.6526 81.4553 62.5105 81.6021 62.3914C81.7489 62.2724 81.9272 62.1833 82.137 62.1242ZM83.1137 62.5837L83.074 62.4428C83.0455 62.3416 83.0415 62.2433 83.062 62.148C83.0826 62.0526 83.1285 61.968 83.1998 61.8939C83.2711 61.8198 83.3689 61.7653 83.4933 61.7302C83.6214 61.6941 83.7352 61.6891 83.8347 61.715C83.9354 61.7406 84.0187 61.7889 84.0848 61.8598C84.1521 61.9304 84.2 62.0163 84.2285 62.1175L84.2682 62.2584C84.296 62.3572 84.2997 62.4542 84.2791 62.5496C84.2598 62.6445 84.2145 62.729 84.1432 62.8031C84.0719 62.8772 83.9735 62.9319 83.8478 62.9673C83.721 63.003 83.6072 63.0081 83.5065 62.9825C83.407 62.9566 83.3237 62.9083 83.2564 62.8377C83.1891 62.7672 83.1415 62.6825 83.1137 62.5837ZM83.4235 62.3443L83.4632 62.4852C83.4752 62.5279 83.4946 62.5665 83.5215 62.6011C83.5492 62.6341 83.5836 62.658 83.6246 62.6727C83.6665 62.686 83.7125 62.6855 83.7625 62.6714C83.8149 62.6566 83.8544 62.633 83.8808 62.6006C83.9068 62.5669 83.9225 62.5289 83.9277 62.4866C83.9325 62.4431 83.9289 62.4001 83.9169 62.3574L83.8772 62.2165C83.8645 62.1714 83.8443 62.1323 83.8165 62.0993C83.7897 62.0647 83.7559 62.0407 83.7152 62.0271C83.6754 62.012 83.6293 62.0118 83.5769 62.0266C83.5281 62.0404 83.49 62.0642 83.4628 62.0983C83.4351 62.131 83.4183 62.1694 83.4122 62.2132C83.407 62.2555 83.4108 62.2992 83.4235 62.3443ZM84.8093 63.7233L84.7696 63.5824C84.7414 63.4824 84.7376 63.3848 84.7582 63.2894C84.7799 63.1938 84.8264 63.1089 84.8977 63.0349C84.9703 62.9604 85.0693 62.9055 85.195 62.8701C85.3218 62.8344 85.435 62.8295 85.5344 62.8555C85.6339 62.8814 85.7173 62.9297 85.7846 63.0002C85.8519 63.0708 85.8996 63.1561 85.9278 63.2561L85.9675 63.397C85.9956 63.497 85.9995 63.5947 85.9789 63.69C85.9596 63.785 85.9143 63.8695 85.843 63.9436C85.7717 64.0176 85.6732 64.0724 85.5476 64.1078C85.4208 64.1435 85.307 64.1486 85.2063 64.123C85.1056 64.0973 85.021 64.0494 84.9525 63.9792C84.8852 63.9086 84.8375 63.8233 84.8093 63.7233ZM85.1209 63.4835L85.1606 63.6243C85.173 63.6683 85.1944 63.707 85.2249 63.7405C85.2554 63.774 85.291 63.7976 85.3317 63.8111C85.3736 63.8243 85.4178 63.8244 85.4641 63.8114C85.5226 63.7949 85.5651 63.7704 85.5915 63.7379C85.6179 63.7055 85.6317 63.668 85.6329 63.6256C85.6354 63.5827 85.6304 63.5394 85.618 63.4955L85.5783 63.3546C85.5659 63.3107 85.5459 63.2722 85.5182 63.2392C85.4901 63.205 85.4557 63.1811 85.415 63.1676C85.3752 63.1524 85.3297 63.1521 85.2785 63.1665C85.2272 63.181 85.188 63.2052 85.1607 63.2392C85.1343 63.2717 85.1181 63.3098 85.112 63.3537C85.1056 63.3963 85.1085 63.4396 85.1209 63.4835ZM85.0202 61.7522L84.306 64.2009L84.0117 64.1376L84.7259 61.689L85.0202 61.7522Z" fill="#F76868"/>
<path d="M62.9062 58.509L63.6024 58.1168L64.9846 56.7215L68.4648 58.7645L70.7755 59.5203L73.881 59.6596L74.6706 56.7351L77.2952 56.8877L78.6107 55.2585L79.7452 56.9932L82.7346 56.151L83.3945 53.9106L85.3453 52.9208C86.4865 52.284 87.8481 53.1074 87.8481 53.1074L89.7182 54.5919L93.3674 54.3702" stroke="#2B9BD4" stroke-width="1.35208" stroke-linecap="round" stroke-linejoin="round"/>
<path d="M164.993 95.876L161.617 96.6534L159.876 95.1297C159.876 95.1297 158.595 94.2683 157.461 94.8308L155.863 97.1672L155.119 99.3062L152.183 99.9823L151.167 98.2489L149.307 97.5633L146.772 97.293L145.872 100.088L143.377 102.01L141.175 101.169L138.238 100.497L136.835 101.785L136.48 103.599L137.06 106.122L165.826 99.4956L164.993 95.876Z" fill="url(#paint4_linear_203_2438)"/>
<path d="M136.48 103.599L136.835 101.785L138.238 100.497L141.175 101.169L143.377 102.01L145.872 100.088L146.772 97.293L149.307 97.5633L151.167 98.2489L152.183 99.9823L155.119 99.3063L155.863 97.1672L157.461 94.8308C158.595 94.2683 159.876 95.1297 159.876 95.1297L161.617 96.6534L164.993 95.876" stroke="#2B9BD4" stroke-width="1.35208" stroke-linecap="round" stroke-linejoin="round"/>
<path d="M166.536 149.334H88.2421L82.6602 100.76H172.118L166.536 149.334Z" fill="white"/>
<path d="M162.173 152.993H83.8798L78.2979 104.418H167.755L162.173 152.993Z" stroke="#192E53" stroke-width="2.70417" stroke-linecap="round" stroke-linejoin="round"/>
<path opacity="0.5" d="M166.536 149.334H88.2421L82.6602 100.76H172.118L166.536 149.334Z" fill="#94B3C5"/>
<path d="M105.355 120.846H137.135" stroke="#192E53" stroke-width="2.70417" stroke-linecap="round" stroke-linejoin="round"/>
<defs>
<linearGradient id="paint0_linear_203_2438" x1="207.262" y1="44.595" x2="207.262" y2="36.8123" gradientUnits="userSpaceOnUse">
<stop stop-color="#68D5FF" stop-opacity="0.01"/>
<stop offset="0.125016" stop-color="#68D5FF" stop-opacity="0.0156863"/>
<stop offset="0.249363" stop-color="#68D5FF" stop-opacity="0.0627451"/>
<stop offset="0.373483" stop-color="#68D5FF" stop-opacity="0.141176"/>
<stop offset="0.497538" stop-color="#68D5FF" stop-opacity="0.25098"/>
<stop offset="0.621656" stop-color="#68D5FF" stop-opacity="0.392157"/>
<stop offset="0.745775" stop-color="#68D5FF" stop-opacity="0.564706"/>
<stop offset="0.867592" stop-color="#68D5FF" stop-opacity="0.768627"/>
<stop offset="0.974597" stop-color="#68D5FF" stop-opacity="0.968627"/>
<stop offset="1" stop-color="#82D1DA"/>
</linearGradient>
<linearGradient id="paint1_linear_203_2438" x1="171.966" y1="57.7181" x2="218.822" y2="68.0261" gradientUnits="userSpaceOnUse">
<stop stop-color="#BFDEAB"/>
<stop offset="1" stop-color="#82D1DA"/>
</linearGradient>
<linearGradient id="paint2_linear_203_2438" x1="72.9335" y1="74.0312" x2="72.9335" y2="67.0979" gradientUnits="userSpaceOnUse">
<stop stop-color="#68D5FF" stop-opacity="0.01"/>
<stop offset="0.125016" stop-color="#68D5FF" stop-opacity="0.0156863"/>
<stop offset="0.249363" stop-color="#68D5FF" stop-opacity="0.0627451"/>
<stop offset="0.373483" stop-color="#68D5FF" stop-opacity="0.141176"/>
<stop offset="0.497538" stop-color="#68D5FF" stop-opacity="0.25098"/>
<stop offset="0.621656" stop-color="#68D5FF" stop-opacity="0.392157"/>
<stop offset="0.745775" stop-color="#68D5FF" stop-opacity="0.564706"/>
<stop offset="0.867592" stop-color="#68D5FF" stop-opacity="0.768627"/>
<stop offset="0.974597" stop-color="#68D5FF" stop-opacity="0.968627"/>
<stop offset="1" stop-color="#82D1DA"/>
</linearGradient>
<linearGradient id="paint3_linear_203_2438" x1="48.2982" y1="99.1768" x2="94.0807" y2="86.2773" gradientUnits="userSpaceOnUse">
<stop stop-color="#F47A4B"/>
<stop offset="1" stop-color="#F79975"/>
</linearGradient>
<linearGradient id="paint4_linear_203_2438" x1="135.229" y1="101.931" x2="135.229" y2="95.4582" gradientUnits="userSpaceOnUse">
<stop stop-color="#68D5FF" stop-opacity="0.01"/>
<stop offset="0.125016" stop-color="#68D5FF" stop-opacity="0.0156863"/>
<stop offset="0.249363" stop-color="#68D5FF" stop-opacity="0.0627451"/>
<stop offset="0.373483" stop-color="#68D5FF" stop-opacity="0.141176"/>
<stop offset="0.497538" stop-color="#68D5FF" stop-opacity="0.25098"/>
<stop offset="0.621656" stop-color="#68D5FF" stop-opacity="0.392157"/>
<stop offset="0.745775" stop-color="#68D5FF" stop-opacity="0.564706"/>
<stop offset="0.867592" stop-color="#68D5FF" stop-opacity="0.768627"/>
<stop offset="0.974597" stop-color="#68D5FF" stop-opacity="0.968627"/>
<stop offset="1" stop-color="#82D1DA"/>
</linearGradient>
</defs>
</svg>
