<svg width="156" height="179" viewBox="0 0 156 179" fill="none" xmlns="http://www.w3.org/2000/svg">
<g id="Group 9793">
<path id="Path 67" d="M127.135 23.8496C138.323 32.2259 147.126 43.6167 152.339 56.8159" stroke="#192E53" stroke-width="2.16333" stroke-linecap="round" stroke-linejoin="round"/>
<path id="Path 68" d="M62.3203 11.2106C68.4899 9.5934 74.9652 8.73193 81.6413 8.73193C94.0313 8.73193 105.727 11.6972 116.061 16.9576" stroke="#192E53" stroke-width="2.16333" stroke-linecap="round" stroke-linejoin="round"/>
<path id="Path 69" d="M11.4053 55.6617C17.5487 40.8251 28.2589 28.357 41.7825 20.0098" stroke="#192E53" stroke-width="2.16333" stroke-linecap="round" stroke-linejoin="round"/>
<path id="Path 70" d="M58.8984 21.6182C74.5258 29.6961 123.616 66.3023 141.852 118.031" stroke="#192E53" stroke-width="2.16333" stroke-linecap="round" stroke-linejoin="round" stroke-dasharray="17.38"/>
<path id="Path 71" d="M149.637 75.0303C149.637 75.0303 144.58 84.944 123.618 97.7901" stroke="#192E53" stroke-width="1.44792" stroke-linecap="round" stroke-linejoin="round" stroke-dasharray="17.38"/>
<path id="Path 72" d="M16.6992 61.4586C26.8332 57.9575 84.2532 21.6177 147.159 63.1076" stroke="#192E53" stroke-width="2.16333" stroke-linecap="round" stroke-linejoin="round" stroke-dasharray="17.38"/>
<path id="Path 73" d="M29.7314 113.462C36.4991 107.197 57.8181 53.9589 119.747 23.6567" stroke="#192E53" stroke-width="2.16333" stroke-linecap="round" stroke-linejoin="round" stroke-dasharray="17.38"/>
<path id="Path 75" d="M11.2882 113.463C7.65953 104.594 5.66016 94.8871 5.66016 84.7142C5.66016 79.7798 6.13066 74.9553 7.02818 70.2842" stroke="#192E53" stroke-width="2.16333" stroke-linecap="round" stroke-linejoin="round"/>
<circle id="Ellipse 395" cx="125.094" cy="15.6444" r="7.6131" fill="url(#paint0_linear_203_2200)"/>
<circle id="Ellipse 396" cx="52.5082" cy="11.8012" r="11.4076" fill="url(#paint1_linear_203_2200)"/>
<circle id="Ellipse 397" cx="22.5804" cy="118.944" r="11.4076" fill="url(#paint2_linear_203_2200)"/>
<circle id="Ellipse 398" cx="10.4978" cy="61.4485" r="7.59445" fill="url(#paint3_linear_203_2200)"/>
<circle id="Ellipse 399" cx="147.965" cy="122.589" r="7.59445" fill="url(#paint4_linear_203_2200)"/>
<g id="Group 7405">
<path id="Path 14431" d="M149.043 122.765C149.043 124.156 147.915 126.199 146.525 126.199C145.134 126.199 144.006 124.156 144.006 122.765C144.006 121.373 145.134 120.246 146.525 120.246C147.915 120.246 149.043 121.373 149.043 122.765Z" fill="white"/>
<path id="Path 14432" d="M148.517 126.839C148.101 127.754 147.365 128.557 146.526 128.557C145.684 128.557 144.949 127.754 144.535 126.838C143.3 127.052 142.176 127.456 141.239 128.005V129.686C142.661 130.071 144.506 130.765 146.526 130.765C148.548 130.765 150.394 130.07 151.818 129.684V128.009C150.879 127.458 149.753 127.054 148.517 126.839V126.839Z" fill="white"/>
</g>
<g id="Group 7406">
<path id="Path 14433" d="M11.6281 61.6503C11.6281 63.071 10.4753 65.1588 9.05356 65.1588C7.63321 65.1588 6.48047 63.071 6.48047 61.6503C6.48047 60.2286 7.63321 59.0762 9.05356 59.0762C10.4753 59.0762 11.6281 60.2286 11.6281 61.6503Z" fill="white"/>
<path id="Path 14434" d="M11.0918 65.8135C10.6676 66.7492 9.91604 67.5686 9.05597 67.5686C8.19733 67.5686 7.4458 66.7492 7.02161 65.8135C5.76069 66.0309 4.61219 66.4434 3.65527 67.0055V68.7238C5.10743 69.1162 6.99262 69.8242 9.05597 69.8242C11.1236 69.8242 13.0102 69.1148 14.4655 68.721V67.0097C13.5054 66.4448 12.3544 66.0323 11.0917 65.8135L11.0918 65.8135Z" fill="white"/>
</g>
<g id="Group 7407">
<path id="Path 14435" d="M28.2709 127.778C26.8244 126.373 25.0566 125.381 23.1569 124.907C23.1092 124.881 23.0541 124.867 22.9993 124.867H22.8268C22.772 124.867 22.7182 124.88 22.6705 124.906C22.6719 124.909 23.1629 126.061 23.4669 126.174C23.4669 126.174 21.0851 128.391 20.5117 131.339H23.2425C23.4249 131.339 28.371 129.377 28.371 129.195V128.016C28.371 127.926 28.3349 127.841 28.2709 127.778Z" fill="white"/>
<path id="Path 14436" d="M17.5564 126.174C17.8618 126.061 18.3528 124.906 18.3528 124.906C18.3047 124.88 18.2514 124.867 18.1962 124.867H18.0718C18.0456 124.867 18.0212 124.87 17.9965 124.875C16.0463 125.337 14.2318 126.341 12.752 127.778C12.6884 127.841 12.6523 127.926 12.6523 128.016V129.195C12.6523 129.377 18.1326 131.668 18.315 131.668L20.513 131.339C19.9397 128.391 17.5564 126.174 17.5564 126.174H17.5564Z" fill="white"/>
<path id="Path 14437" d="M17.5548 116.375C17.1826 116.97 16.967 117.682 16.967 118.448C16.967 118.874 17.0334 119.28 17.1564 119.663C16.945 119.763 16.7962 119.989 16.7962 120.251C16.7962 120.605 17.0684 120.895 17.4042 120.895L17.4145 120.893C17.4852 121.848 17.9384 122.802 18.6118 123.455V124.177C18.6118 124.177 19.5022 125.928 20.5115 125.948C21.5193 125.969 22.4111 124.177 22.4111 124.177V123.453C23.0828 122.802 23.536 121.848 23.607 120.893L23.6173 120.895C23.9531 120.895 24.2253 120.605 24.2253 120.251C24.2253 119.989 24.0775 119.763 23.8647 119.663C23.9877 119.28 24.056 118.874 24.056 118.448C24.056 118.058 23.9994 117.684 23.8965 117.33C24.0326 117.605 24.1196 117.86 24.1991 118.031C24.2486 118.137 24.4338 118.031 24.4338 118.031C24.793 116.47 23.4854 115.499 23.4854 115.499C24.4642 115.557 24.8089 116.004 24.8089 116.004C23.975 114.563 22.8685 114.946 22.8615 114.948C21.3482 112.785 17.9893 114.261 17.9893 114.261C18.9073 114.087 19.5846 114.119 20.2205 114.187C17.1246 114.036 16.4385 117.216 16.4385 117.216C16.5572 116.84 16.9959 116.57 17.5548 116.375H17.5548Z" fill="white"/>
</g>
<path id="Path 14439" d="M58.2844 19.7008C55.8502 18.7598 53.147 18.809 52.9197 18.0808V16.986C55.3521 16.9788 56.3165 16.194 56.3165 16.194C55.3016 15.6178 54.9802 11.5911 54.9802 11.5911C54.9802 10.3574 54.4617 9.25556 53.6465 8.50121C53.3383 8.14365 52.9155 7.87429 52.3711 7.71362C51.9628 7.56304 51.5255 7.47607 51.0678 7.47607C50.5828 7.47607 50.1193 7.57311 49.6895 7.74403C49.2494 7.88879 48.8888 8.10883 48.6078 8.3941C47.7233 9.14704 47.1556 10.2996 47.1556 11.5911C47.1556 11.5911 46.8343 15.6178 45.8191 16.194C45.8191 16.194 46.7848 16.9787 49.2161 16.986V18.0808C48.9885 18.8075 46.2853 18.7598 43.8515 19.7008C43.6429 19.7805 43.5068 19.9833 43.5068 20.2092V22.1189C43.5068 22.4187 49.3593 25.2348 49.6562 25.2348L54.0954 24.9062C54.391 24.9062 58.6304 22.4187 58.6304 22.1189V20.2092C58.6304 19.9833 58.4929 19.7805 58.2844 19.7008Z" fill="white"/>
<circle id="Ellipse 400" cx="51.0662" cy="13.2898" r="11.4558" stroke="#192E53" stroke-width="1.44792" stroke-linecap="round" stroke-linejoin="round"/>
<circle id="Ellipse 401" cx="20.5173" cy="120.211" r="11.4558" stroke="#192E53" stroke-width="1.44792" stroke-linecap="round" stroke-linejoin="round"/>
<circle id="Ellipse 403" cx="146.531" cy="124.03" r="7.63721" stroke="#192E53" stroke-width="1.44792" stroke-linecap="round" stroke-linejoin="round"/>
<path id="Path 14440" opacity="0.12" d="M86.5349 128.887H84.1757H81.8165L78.4385 132.228L82.1512 137.651L79.2497 172.638L84.1757 178.207L89.1017 172.638L86.2005 137.651L89.9129 132.228L86.5349 128.887Z" fill="#192E53"/>
<path id="Path 14441" opacity="0.3" d="M102.414 150.987L97.4749 146.572L94.4072 152.708H108.325L106.587 148.933L102.414 150.987Z" fill="white"/>
<path id="Path 14442" fill-rule="evenodd" clip-rule="evenodd" d="M127.088 168.799C125.318 151.538 122.066 140.719 116.857 134.749C112.122 129.323 106.396 128.659 100.859 128.02C98.9417 127.798 96.9639 127.568 95.0451 127.141L93.483 123.905C97.8455 121.237 100.97 116.688 101.648 111.373C103.542 110.983 104.971 109.304 104.971 107.297C104.971 105.962 104.328 104.724 103.278 103.948C103.812 102.147 104.083 100.283 104.083 98.4009C104.083 91.4943 100.478 85.4188 95.0554 81.9439C94.9857 81.8817 94.9062 81.834 94.821 81.7947C91.8336 79.9385 88.3138 78.8643 84.5463 78.8643C73.7739 78.8643 65.0097 87.6285 65.0097 98.4009C65.0097 99.0874 65.0457 99.7707 65.1182 100.45C65.0574 100.567 65.0199 100.696 65.0111 100.836C64.9952 101.111 65.0966 101.368 65.2688 101.556C65.4006 102.363 65.5816 103.162 65.8146 103.948C64.7651 104.724 64.122 105.96 64.122 107.297C64.122 109.304 65.5498 110.983 67.4449 111.373C68.0981 116.501 71.0329 120.915 75.1567 123.614L73.4539 127.141C71.5369 127.568 69.5591 127.798 67.6404 128.02C62.1036 128.659 56.3787 129.323 51.6426 134.749C46.4328 140.719 43.1824 151.538 41.4114 168.799C41.3566 169.339 41.7489 169.821 42.2891 169.876C42.3223 169.879 42.357 169.88 42.3902 169.88C42.8868 169.88 43.3139 169.504 43.3662 168.999C45.0675 152.392 48.2586 141.611 53.1223 136.04C57.3575 131.186 62.4627 130.595 67.8662 129.97C70.0035 129.722 72.2146 129.467 74.3978 128.938C74.7742 128.846 75.0464 128.549 75.1263 128.195L76.8623 124.598C79.1876 125.768 81.801 126.428 84.5462 126.428C87.1048 126.428 89.5461 125.853 91.7484 124.83L93.3744 128.195C93.4526 128.549 93.7247 128.846 94.1012 128.938C96.2862 129.467 98.4955 129.722 100.633 129.97C106.038 130.595 111.142 131.186 115.378 136.04C120.24 141.611 123.431 152.392 125.134 168.999C125.187 169.504 125.612 169.88 126.109 169.88C126.142 169.88 126.177 169.879 126.21 169.876C126.75 169.821 127.143 169.339 127.088 168.799L127.088 168.799ZM84.5468 80.8278C87.7975 80.8278 90.8411 81.7183 93.4559 83.2631C93.6514 87.2986 92.4612 90.6635 89.904 93.2684C83.5885 99.6999 70.7092 99.9968 67.0431 99.9431C66.9982 99.4305 66.9735 98.9165 66.9735 98.4011C66.9735 88.7104 74.8575 80.8278 84.5468 80.8278ZM69.3182 110.397C69.2776 109.886 68.852 109.492 68.3394 109.492C68.3132 109.492 68.2871 109.492 68.2609 109.493C67.0594 109.482 66.0862 108.5 66.0862 107.297C66.0862 106.432 66.5974 105.645 67.3895 105.29C67.8512 105.083 68.0817 104.557 67.9166 104.076C67.6748 103.366 67.4793 102.643 67.3302 101.912C67.4807 101.915 67.6384 101.915 67.8109 101.915C69.5512 101.915 72.3456 101.824 75.5182 101.368C82.61 100.35 87.9209 98.0879 91.3017 94.6463C93.9455 91.9562 95.3284 88.5898 95.4341 84.6225C99.5028 87.8425 102.12 92.8205 102.12 98.4007C102.12 98.909 102.096 99.4142 102.053 99.9183C99.0843 95.7714 95.4949 93.8456 95.3199 93.7544C94.8392 93.5024 94.2467 93.6847 93.9936 94.1655C93.7416 94.6448 93.9254 95.2387 94.4047 95.4918C94.4496 95.5152 98.7442 97.8171 101.562 102.789C101.449 103.222 101.323 103.652 101.178 104.078C101.014 104.557 101.243 105.083 101.705 105.29C102.497 105.645 103.008 106.433 103.008 107.297C103.008 108.502 102.034 109.482 100.832 109.493C100.806 109.492 100.773 109.492 100.755 109.492C100.243 109.492 99.8171 109.886 99.7764 110.397C99.3639 115.654 96.2521 120.148 91.8811 122.565C91.8419 122.578 91.804 122.588 91.7666 122.606C91.6969 122.64 91.6333 122.682 91.5753 122.73C89.4614 123.838 87.0665 124.465 84.5471 124.465C76.6271 124.465 69.9379 118.285 69.3182 110.397V110.397Z" fill="#192E53"/>
<g id="Group 7408">
<path id="Path 14443" d="M126.229 15.865C126.229 17.2854 125.076 19.3747 123.656 19.3747C122.234 19.3747 121.081 17.2854 121.081 15.865C121.081 14.4431 122.234 13.2905 123.656 13.2905C125.076 13.2905 126.229 14.4431 126.229 15.865Z" fill="white"/>
<path id="Path 14444" d="M125.687 20.0273C125.263 20.9627 124.512 21.7821 123.653 21.7821C122.793 21.7821 122.042 20.9627 121.619 20.0273C120.358 20.2444 119.21 20.6571 118.251 21.219V22.9375C119.705 23.3301 121.588 24.0379 123.653 24.0379C125.719 24.0379 127.607 23.3285 129.061 22.9347V21.2232C128.101 20.6585 126.952 20.246 125.687 20.0273Z" fill="white"/>
</g>
<circle id="Ellipse 404" cx="123.618" cy="17.1084" r="7.63721" stroke="#192E53" stroke-width="1.48643" stroke-linecap="round" stroke-linejoin="round"/>
<circle id="Ellipse 405" cx="9.06104" cy="62.9316" r="7.63721" stroke="#192E53" stroke-width="1.44792" stroke-linecap="round" stroke-linejoin="round"/>
<rect id="Rectangle 2274" x="140.291" y="163.378" width="9.99034" height="1.81891" fill="#192E53"/>
</g>
<defs>
<linearGradient id="paint0_linear_203_2200" x1="117.48" y1="23.2575" x2="132.707" y2="23.2575" gradientUnits="userSpaceOnUse">
<stop stop-color="#0075C2"/>
<stop offset="1" stop-color="#82D1DA"/>
</linearGradient>
<linearGradient id="paint1_linear_203_2200" x1="41.1007" y1="23.2088" x2="63.9158" y2="23.2088" gradientUnits="userSpaceOnUse">
<stop stop-color="#F47A4B"/>
<stop offset="1" stop-color="#F79975"/>
</linearGradient>
<linearGradient id="paint2_linear_203_2200" x1="11.1728" y1="130.351" x2="33.9879" y2="130.351" gradientUnits="userSpaceOnUse">
<stop stop-color="#BFDEAB"/>
<stop offset="1" stop-color="#82D1DA"/>
</linearGradient>
<linearGradient id="paint3_linear_203_2200" x1="2.90323" y1="69.0429" x2="18.0921" y2="69.0429" gradientUnits="userSpaceOnUse">
<stop stop-color="#BFDEAB"/>
<stop offset="1" stop-color="#82D1DA"/>
</linearGradient>
<linearGradient id="paint4_linear_203_2200" x1="140.37" y1="130.183" x2="155.559" y2="130.183" gradientUnits="userSpaceOnUse">
<stop stop-color="#28B473"/>
<stop offset="1" stop-color="#1CBFD6"/>
</linearGradient>
</defs>
</svg>
