<svg width="265" height="142" viewBox="0 0 265 142" fill="none" xmlns="http://www.w3.org/2000/svg">
<g opacity="0.5">
<path d="M262.692 56.8878L259.082 53.2778C258.732 52.9277 258.732 52.3606 259.082 52.0106C259.431 51.6612 259.999 51.6612 260.348 52.0106L263.958 55.6206C264.309 55.9706 264.309 56.5377 263.958 56.8878C263.609 57.2372 263.041 57.2372 262.692 56.8878Z" fill="#A5AFB9"/>
<path d="M259.081 56.8878C258.732 56.5385 258.732 55.9706 259.081 55.6213L262.691 52.0114C263.041 51.6619 263.609 51.6612 263.959 52.0114C264.308 52.3607 264.308 52.9285 263.959 53.2779L260.349 56.8878C259.999 57.2379 259.431 57.2379 259.081 56.8878Z" fill="#A5AFB9"/>
<path d="M45.1034 32.299L41.4935 28.689C41.1441 28.3389 41.1441 27.7719 41.4935 27.4217C41.8436 27.0723 42.4107 27.0723 42.7608 27.4217L46.3707 31.0317C46.7202 31.3818 46.7202 31.9489 46.3707 32.299C46.0206 32.6483 45.4536 32.6483 45.1034 32.299Z" fill="#A5AFB9"/>
<path d="M41.494 32.2977C41.1439 31.9484 41.1439 31.3806 41.494 31.0312L45.104 27.4213C45.4534 27.0712 46.0212 27.0712 46.3705 27.4213C46.7207 27.7706 46.72 28.3385 46.3705 28.6878L42.7606 32.2977C42.4112 32.6479 41.8434 32.6479 41.494 32.2977Z" fill="#A5AFB9"/>
<path d="M114.388 5.74902C114.617 5.74902 114.846 5.83634 115.021 6.01105C115.371 6.36117 115.371 6.92823 115.021 7.27764L111.411 10.8861C111.061 11.2362 110.495 11.2362 110.144 10.8861C109.794 10.5368 109.794 9.96973 110.144 9.61961L113.754 6.01105C113.929 5.83634 114.158 5.74902 114.388 5.74902Z" fill="#A5AFB9"/>
<path d="M110.778 5.74902C111.007 5.74902 111.236 5.83634 111.411 6.01105L115.021 9.61961C115.371 9.96973 115.371 10.5368 115.021 10.8861C114.671 11.2362 114.105 11.2362 113.754 10.8861L110.144 7.27764C109.794 6.92822 109.794 6.36117 110.144 6.01105C110.319 5.83634 110.548 5.74902 110.778 5.74902Z" fill="#A5AFB9"/>
<path d="M43.7869 78.7332C43.557 78.7332 43.3279 78.6458 43.1532 78.4711C42.8031 78.1211 42.8031 77.554 43.1532 77.2046L46.7632 73.5946C47.1133 73.2445 47.6796 73.2445 48.0297 73.5946C48.3798 73.944 48.3798 74.5111 48.0297 74.8611L44.4198 78.4711C44.2451 78.6458 44.0159 78.7332 43.7869 78.7332Z" fill="#A5AFB9"/>
<path d="M47.3961 78.7332C47.167 78.7332 46.9378 78.6458 46.7632 78.4711L43.1532 74.8611C42.8031 74.5111 42.8031 73.944 43.1532 73.5946C43.5033 73.2445 44.0696 73.2445 44.4198 73.5946L48.0297 77.2046C48.3798 77.554 48.3798 78.1211 48.0297 78.4711C47.855 78.6458 47.6259 78.7332 47.3961 78.7332Z" fill="#A5AFB9"/>
<rect x="161.812" y="0.971191" width="38.2085" height="1.79154" fill="#A5AFB9"/>
<rect x="118.544" y="7.54053" width="60.5784" height="1.79154" fill="#A5AFB9"/>
<rect x="152.209" y="0.971191" width="6.60924" height="1.79154" fill="#A5AFB9"/>
<rect x="224.672" y="72.8506" width="20.7765" height="1.79154" fill="#A5AFB9"/>
<rect x="247.235" y="72.8506" width="4.26424" height="1.79154" fill="#A5AFB9"/>
<rect x="0.564453" y="39.9678" width="20.7765" height="1.79154" fill="#A5AFB9"/>
<rect x="23.1328" y="39.9678" width="4.26483" height="1.79154" fill="#A5AFB9"/>
<path d="M45.8447 14.9887C45.8447 15.696 45.2712 16.2695 44.5638 16.2695C43.8557 16.2695 43.2822 15.696 43.2822 14.9887C43.2822 14.2806 43.8557 13.707 44.5638 13.707C45.2712 13.707 45.8447 14.2806 45.8447 14.9887Z" fill="#A5AFB9"/>
<path d="M244.957 25.484C244.957 26.3726 244.237 27.0929 243.348 27.0929C242.46 27.0929 241.74 26.3726 241.74 25.484C241.74 24.5962 242.46 23.876 243.348 23.876C244.237 23.876 244.957 24.5962 244.957 25.484Z" fill="#A5AFB9"/>
<rect x="97.9072" y="139.545" width="9.83996" height="1.79153" fill="#A5AFB9"/>
<rect x="27.5166" y="139.545" width="34.2675" height="1.79153" fill="#A5AFB9"/>
<rect x="167.514" y="139.545" width="71.7316" height="1.79153" fill="#A5AFB9"/>
<rect x="21.6221" y="139.545" width="3.54042" height="1.79153" fill="#A5AFB9"/>
<rect x="241.267" y="139.545" width="7.81839" height="1.79153" fill="#A5AFB9"/>
</g>
</svg>
